<svg xmlns="http://www.w3.org/2000/svg" width="406" height="316.956" viewBox="0 0 406 316.956"><defs><style>.a{fill:#ebebeb;}.b,.o{fill:#fff;}.c{fill:#e0e0e0;}.d{fill:#e6e6e6;}.e{fill:#f0f0f0;}.f{fill:#f5f5f5;}.g{fill:#263238;}.h{fill:#ff8b7b;}.i,.m,.p{fill:#37474f;}.j,.k,.p{opacity:0.2;}.l,.m{opacity:0.3;}.n{fill:#ff5652;}.o{opacity:0.7;}.q{fill:#ffc3bd;}.r{fill:#ed847e;}.s{opacity:0.4;}</style></defs><g transform="translate(0 -37.22)"><g transform="translate(0 51.657)"><rect class="a" width="406" height="0.203" transform="translate(0 265.849)"/><path class="a" d="M199.627,284.634H42.838A4.637,4.637,0,0,1,38.21,280V59.6A4.637,4.637,0,0,1,42.838,55H199.627a4.637,4.637,0,0,1,4.637,4.637V280A4.637,4.637,0,0,1,199.627,284.634ZM42.838,55.162A4.434,4.434,0,0,0,38.413,59.6V280a4.434,4.434,0,0,0,4.425,4.434H199.627A4.442,4.442,0,0,0,204.061,280V59.6a4.442,4.442,0,0,0-4.434-4.434Z" transform="translate(-7.183 -55)"/><path class="a" d="M415.934,284.634h-156.8A4.645,4.645,0,0,1,254.5,280V59.6a4.645,4.645,0,0,1,4.637-4.6h156.8a4.636,4.636,0,0,1,4.62,4.6V280A4.637,4.637,0,0,1,415.934,284.634ZM259.137,55.162A4.442,4.442,0,0,0,254.7,59.6V280a4.442,4.442,0,0,0,4.434,4.433h156.8A4.442,4.442,0,0,0,420.367,280V59.6a4.442,4.442,0,0,0-4.434-4.434Z" transform="translate(-47.846 -55)"/><rect class="a" width="25.635" height="0.203" transform="translate(339.684 273.579)"/><rect class="a" width="27.129" height="0.203" transform="translate(245.167 271.379)"/><rect class="a" width="50.693" height="0.203" transform="translate(322.031 281.123)"/><rect class="a" width="15.615" height="0.203" transform="translate(42.598 279.758)"/><rect class="a" width="24.595" height="0.203" transform="translate(65.447 279.758)"/><rect class="a" width="44.303" height="0.203" transform="translate(153.939 276.332)"/><path class="b" d="M261.548,118.13,215.28,164.406V318.515H377.672V118.13Z" transform="translate(-40.473 -66.868)"/><path class="c" d="M377.568,318.85h-162.4a.438.438,0,0,1-.438-.438V164.3a.43.43,0,0,1,.13-.309l46.284-46.284a.463.463,0,0,1,.309-.13H377.568a.438.438,0,0,1,.439.438V318.412a.438.438,0,0,1-.438.439Zm-161.953-.869H377.13V118.465h-115.5l-46.016,46.016Z" transform="translate(-40.369 -66.765)"/><path class="d" d="M215.28,164.406l48.549,6.261-2.282-52.536Z" transform="translate(-40.473 -66.868)"/><path class="b" d="M215.28,164.406h46.268V118.13Z" transform="translate(-40.473 -66.868)"/><path class="c" d="M261.442,164.733H215.158a.439.439,0,0,1-.406-.268.422.422,0,0,1,.1-.471l46.284-46.284a.455.455,0,0,1,.479-.1.447.447,0,0,1,.268.406V164.3A.438.438,0,0,1,261.442,164.733Zm-45.212-.869h44.782V119.083Z" transform="translate(-40.367 -66.766)"/><path class="e" d="M315.647,248.172l27.608-27.608a6.643,6.643,0,0,0-9.395-9.395l-27.608,27.608-27.608-27.608a6.643,6.643,0,0,0-9.395,9.395l27.608,27.608L269.249,275.78a6.643,6.643,0,0,0,9.395,9.395l27.608-27.608,27.608,27.608a6.643,6.643,0,0,0,9.395-9.395Z" transform="translate(-50.253 -83.994)"/><path class="e" d="M214.113,220.111h0a8.307,8.307,0,0,1-11.742,0l-26.642-26.65,11.742-11.742L214.113,208.4a8.307,8.307,0,0,1,0,11.709Z" transform="translate(-33.037 -78.823)"/><path class="c" d="M0,0H16.605V1.535a6,6,0,0,1-6,6H6a6,6,0,0,1-6-6Z" transform="translate(142.69 114.69) rotate(-45)"/><path class="c" d="M80.805,86.8a57.652,57.652,0,1,0,40.787-16.907A57.652,57.652,0,0,0,80.805,86.8ZM159.05,165.04a52.967,52.967,0,1,1,0-74.907,52.967,52.967,0,0,1,0,74.907Z" transform="translate(-12.021 -57.799)"/><path class="c" d="M171.794,165.7a1.933,1.933,0,0,1-1.364-3.3,40.99,40.99,0,0,0,0-57.887,1.933,1.933,0,1,1,2.728-2.728,44.839,44.839,0,0,1,0,63.336,1.933,1.933,0,0,1-1.364.577Z" transform="translate(-31.919 -63.674)"/><path class="c" d="M82.867,146.878a1.924,1.924,0,0,1-1.876-1.486,44.96,44.96,0,0,1,6.171-35.005,1.941,1.941,0,1,1,3.248,2.127,41.128,41.128,0,0,0-5.684,31.993,1.916,1.916,0,0,1-1.429,2.322A2.144,2.144,0,0,1,82.867,146.878Z" transform="translate(-15 -65.248)"/><path class="c" d="M95.284,177.122a1.933,1.933,0,0,1-1.364-.568,44.5,44.5,0,0,1-8.526-11.888,1.928,1.928,0,1,1,3.459-1.705,41.014,41.014,0,0,0,7.8,10.865,1.933,1.933,0,0,1,0,2.728,1.957,1.957,0,0,1-1.364.568Z" transform="translate(-16.017 -75.094)"/><path class="e" d="M.008,0H10.743V24.928a4.807,4.807,0,0,1-4.807,4.807H4.807A4.807,4.807,0,0,1,0,24.928V0Z" transform="translate(171.353 215.505) rotate(45)"/><path class="c" d="M.016,0H10.735V.512a4.36,4.36,0,0,1-4.36,4.36H4.36A4.36,4.36,0,0,1,0,.512V0Z" transform="translate(171.358 215.515) rotate(45)"/><path class="e" d="M279.538,269.7l-17.783,17.775a11.157,11.157,0,0,0,15.777,15.761l7.194-7.186a38.221,38.221,0,0,0-5.189-26.349Z" transform="translate(-48.646 -95.364)"/><path class="c" d="M275.347,282.779a37.3,37.3,0,1,0-34.624,39.788A37.3,37.3,0,0,0,275.347,282.779Zm-71.383,4.969a34.25,34.25,0,1,1,36.54,31.79A34.25,34.25,0,0,1,203.964,287.749Z" transform="translate(-37.756 -91.293)"/><path class="c" d="M221.086,316a28.891,28.891,0,0,1-9.9-19.829,1.25,1.25,0,1,1,2.493-.171,26.5,26.5,0,0,0,28.209,24.563,1.245,1.245,0,1,1,.171,2.485A28.851,28.851,0,0,1,221.087,316Z" transform="translate(-39.702 -100.078)"/><path class="c" d="M275.348,281.54a1.226,1.226,0,0,1-.382-.609,26.569,26.569,0,0,0-13.211-16.321,1.251,1.251,0,0,1,1.153-2.217,29.086,29.086,0,0,1,14.462,17.864,1.242,1.242,0,0,1-.869,1.535,1.267,1.267,0,0,1-1.153-.252Z" transform="translate(-49.092 -93.968)"/><path class="c" d="M243.292,260.606a1.267,1.267,0,0,1-.422-.861,1.25,1.25,0,0,1,1.153-1.332,29.135,29.135,0,0,1,9.419.885,1.26,1.26,0,1,1-.641,2.436,26.373,26.373,0,0,0-8.6-.812A1.283,1.283,0,0,1,243.292,260.606Z" transform="translate(-45.659 -93.229)"/></g><g transform="translate(45.561 335.792)"><ellipse class="f" cx="157.439" cy="9.192" rx="157.439" ry="9.192"/></g><g transform="translate(55.773 117.674)"><path class="g" d="M137.179,144.079c-6.545,6.585,4.58,16.808-2.769,21.5,6,3.013,27.031,6.837,32.48-5.01-3.971-3.086-1.21-10.67-4.872-17.953C156.537,131.818,130.634,136.6,137.179,144.079Z" transform="translate(-81.042 -136.302)"/><path class="g" d="M137.239,145.665c-2.038-.341-8.932,3.086-3.8,12.286,4.133,7.438.69,7.966.69,7.966s4.06.114,1.624-5.416C133.171,154.6,131.961,148.474,137.239,145.665Z" transform="translate(-80.51 -138.057)"/><path class="h" d="M191.483,211.659a2,2,0,0,0-2.68-.812l-.479.252c-.154.081-.447.276-.682.414s-.512.292-.771.422a12.618,12.618,0,0,1-1.583.666,9.971,9.971,0,0,1-3.126.593,8.583,8.583,0,0,1-2.883-.463,10.362,10.362,0,0,1-1.7-.812c-.7-1.543-1.364-3.1-1.933-4.71-.69-1.876-1.3-3.792-1.835-5.733s-1.007-3.906-1.4-5.879c-.2-.983-.382-1.973-.544-2.956l-.219-1.47c-.073-.471-.138-1.007-.179-1.38v-.162a4.08,4.08,0,0,0-8.12.812c.057.69.106,1.218.179,1.795s.154,1.129.235,1.689c.179,1.121.382,2.225.609,3.329a62.418,62.418,0,0,0,1.705,6.5c.317,1.072.706,2.127,1.072,3.191s.812,2.1,1.275,3.134a58.756,58.756,0,0,0,3.013,6.082l.1.179a3.159,3.159,0,0,0,1.259,1.25,16.451,16.451,0,0,0,4.913,1.738,13.666,13.666,0,0,0,5.327-.114,14.047,14.047,0,0,0,6.569-3.565,6.692,6.692,0,0,0,.812-.861c.227-.3.5-.585.812-1.007A2,2,0,0,0,191.483,211.659Z" transform="translate(-86.48 -145.636)"/><path class="h" d="M202.747,208.25h-.235a5.059,5.059,0,0,0-4.06,1.9l-3.922,4.921v3.362c3.151,1.25,7.146-2.119,7.146-2.119l2.022-.512a2.834,2.834,0,0,0,2.119-3.151l-.292-1.973A2.826,2.826,0,0,0,202.747,208.25Z" transform="translate(-92.345 -149.828)"/><path class="i" d="M170.834,184.524c2.623,2.7,2.785,10.743,2.785,10.743l-10.491,8.445s-4.312-11.936-1.924-16.151C163.225,183.988,167.488,181.089,170.834,184.524Z" transform="translate(-85.944 -145.078)"/><g class="j" transform="translate(74.539 37.908)"><path class="b" d="M170.834,184.524c2.623,2.7,2.785,10.743,2.785,10.743l-10.491,8.445s-4.312-11.936-1.924-16.151C163.225,183.988,167.488,181.089,170.834,184.524Z" transform="translate(-160.483 -182.987)"/></g><path class="h" d="M151.85,404.021l5.8.633.8-15.753-5.8-.641Z" transform="translate(-84.321 -183.67)"/><path class="g" d="M158.351,403.79h-6.813a.528.528,0,0,0-.544.5l-.455,6.439a1.291,1.291,0,0,0,1.259,1.291h16.167c2.972,0,2.98-3.013,1.7-3.289-5.773-1.218-8.023-2.907-10.061-4.515A2.03,2.03,0,0,0,158.351,403.79Z" transform="translate(-84.075 -186.589)"/><path class="k" d="M158.524,388.911l-.414,8.12h-5.83l.447-8.762Z" transform="translate(-84.402 -183.672)"/><path class="g" d="M159.131,233.668s5.018,42,5.018,60.681c-3.954,25.984-7.308,71.586-7.308,71.586l-8.023-.211s-3.646-49.662-.268-71.107c-4.328-19.212-9.671-63.547-9.671-63.547Z" transform="translate(-81.883 -154.118)"/><path class="k" d="M144.127,248.67a23.963,23.963,0,0,0-2.777,1.445c1.1,8.291,2.558,18.725,4.1,28.355C148.081,270.545,146.66,253.12,144.127,248.67Z" transform="translate(-82.347 -157.427)"/><path class="h" d="M74.53,386.547l4.783,3.337,8.25-13.447L82.78,373.1Z" transform="translate(-69.785 -180.82)"/><path class="g" d="M79.424,390.283l-4.06-5.465a.52.52,0,0,0-.715-.138l-5.44,3.492a1.283,1.283,0,0,0-.284,1.778c1.7,2.314,1.73,2.33,3.865,5.2,1.324,1.762,3.963,5.31,5.781,7.755s4.2.593,3.646-.609c-2.436-5.351-2.436-8.12-2.387-10.751a2.063,2.063,0,0,0-.406-1.267Z" transform="translate(-68.686 -182.98)"/><path class="k" d="M88.4,376.437l-4.247,6.935-5.124-2.793,4.6-7.479Z" transform="translate(-70.631 -180.82)"/><path class="i" d="M107.665,375.211c-4.149,0-12.789,0-12.935-6.106-.114-4.791,5.814-6.78,10.93-7.024a4.32,4.32,0,0,1,4.523,4.109v.325c5.8-.276,9.549-1.543,10.921-3.7,3.094-4.872-2.834-17.45-8.558-29.606-6.74-14.3-14.372-30.5-14.519-46.016a4.32,4.32,0,0,1,4.279-4.36h0a4.328,4.328,0,0,1,4.32,4.279c.13,13.625,7.308,28.915,13.69,42.411,7.308,15.574,13.682,29.029,8.039,37.92C125.082,372.67,118.3,375.211,107.665,375.211Z" transform="translate(-73.582 -163.849)"/><path class="g" d="M141.46,232.611s-13.853,48.005-20.617,65.415c-13.106,22.785-34.851,57.652-34.851,57.652l-6.943-4.06s16.24-40.275,27.161-59.032c2.931-19.488,14.015-62.735,14.015-62.735Z" transform="translate(-70.635 -153.889)"/><path class="i" d="M83.191,395.9a2.314,2.314,0,0,0,1.2.982.812.812,0,0,0,.812-.268.568.568,0,0,0,.179-.5c-.1-.974-2.615-2.241-3.118-2.485a.13.13,0,0,0-.162.057.187.187,0,0,0,0,.2,12,12,0,0,0,1.088,2.006Zm1.73,0a.674.674,0,0,1,.138.309.2.2,0,0,1-.065.171.56.56,0,0,1-.536.179c-.536-.106-1.242-.974-1.924-2.347a8.558,8.558,0,0,1,2.387,1.657Z" transform="translate(-71.203 -184.679)"/><path class="i" d="M82.052,393.72l.049.041c.812.447,2.923.812,3.386.138a.706.706,0,0,0-.041-.812c-.812-1.437-3.248.252-3.354.325a.2.2,0,0,0-.073.162A.268.268,0,0,0,82.052,393.72Zm3.086-.471a.814.814,0,0,1,.065.089c.089.154.106.268.057.333-.268.39-1.827.252-2.736-.106C83.132,393.2,84.553,392.461,85.138,393.249Z" transform="translate(-71.193 -184.469)"/><path class="i" d="M164.433,405.034a2.347,2.347,0,0,0,1.51-.382.812.812,0,0,0,.252-.812.609.609,0,0,0-.292-.447c-.812-.5-3.354.763-3.849,1.023a.138.138,0,0,0-.065.162.219.219,0,0,0,.154.138A11.311,11.311,0,0,0,164.433,405.034Zm1.007-1.4a.617.617,0,0,1,.333.073c.041,0,.081.057.1.154a.552.552,0,0,1-.179.536c-.4.365-1.518.414-3.029.146a8.461,8.461,0,0,1,2.736-.909Z" transform="translate(-86.226 -186.493)"/><path class="i" d="M162.133,404.389h.057c.812-.374,2.4-1.859,2.136-2.631a.706.706,0,0,0-.65-.43c-1.624-.187-1.738,2.753-1.746,2.874a.182.182,0,0,0,.2.187Zm1.462-2.761h.114c.171,0,.276.073.3.154.154.447-.885,1.624-1.721,2.136.073-.706.333-2.29,1.324-2.29Z" transform="translate(-86.216 -186.125)"/><path class="i" d="M129.76,220.145l27.657,3.54c6.236-21,8.291-31.14,8.843-36.02a5.3,5.3,0,0,0-3.67-5.684c-1.624-.52-3.719-1.137-5.8-1.624-.706-.187-1.429-.357-2.136-.52a88.572,88.572,0,0,0-12.554-1.624c-.625-.057-1.242-.089-1.868-.122-1.226-.065-2.436-.081-3.54-.081a5.968,5.968,0,0,0-5.952,6.5c.219,2.436.39,4.7.52,6.78.309,4.872.406,8.77.333,12.18a105.04,105.04,0,0,1-1.835,16.678Z" transform="translate(-80.168 -144.143)"/><g class="l" transform="translate(49.592 33.867)"><path class="b" d="M129.76,220.145l27.657,3.54c6.236-21,8.291-31.14,8.843-36.02a5.3,5.3,0,0,0-3.67-5.684c-1.624-.52-3.719-1.137-5.8-1.624-.706-.187-1.429-.357-2.136-.52a88.572,88.572,0,0,0-12.554-1.624c-.625-.057-1.242-.089-1.868-.122-1.226-.065-2.436-.081-3.54-.081a5.968,5.968,0,0,0-5.952,6.5c.219,2.436.39,4.7.52,6.78.309,4.872.406,8.77.333,12.18a105.04,105.04,0,0,1-1.835,16.678Z" transform="translate(-129.76 -178.01)"/></g><path class="m" d="M131.923,206.284c3.654-4.726,4.978-10.134,3.792-13.114l-4.125.926C131.923,198.951,132.012,202.865,131.923,206.284Z" transform="translate(-80.512 -146.993)"/><path class="b" d="M158.967,180.306c-.715-.187-1.429-.357-2.136-.52a89.846,89.846,0,0,0-12.562-1.624c-.625-.049-1.242-.081-1.859-.114L141.33,178l.812,1.421c.114.195,2.874,4.71,9.744,9.565l1.47,1.023,1.413-1.08a10.67,10.67,0,0,0,4.45-8.55Z" transform="translate(-82.343 -144.141)"/><path class="h" d="M148,167.438c-.26,3.419-1.064,6.9-3.053,8.364,0,0,2.533,4.214,9.094,8.818a8.038,8.038,0,0,0,3.467-7.211c-4.369-1.624-4.06-4.653-2.217-9.484l-3.41-1.835A2.233,2.233,0,0,0,148,167.438Z" transform="translate(-83.024 -141.764)"/><path class="k" d="M152.6,166.09a2.233,2.233,0,0,0-3.841,1.039,13.8,13.8,0,0,0,5.968,6.1,14.786,14.786,0,0,1,1.275-5.3Z" transform="translate(-83.74 -141.764)"/><path class="h" d="M142.094,152c1.7,6.6,2.274,9.427,6.309,12.18,6.066,4.174,13.8.65,14.1-6.317.284-6.277-2.533-16.021-9.582-17.417A9.3,9.3,0,0,0,142.094,152Z" transform="translate(-82.425 -137.045)"/><path class="g" d="M158.383,141.579a35.647,35.647,0,0,1-13.8,7.608s5.043,10.727-4.393,8.023c-2.736-9.135,0-13.877,2.436-16.11C150.125,138.664,155.4,137.852,158.383,141.579Z" transform="translate(-81.914 -136.814)"/><path class="h" d="M141.721,161.973a4.986,4.986,0,0,0,2.793,2.582c1.624.585,2.59-.812,2.241-2.436-.317-1.453-1.551-3.516-3.248-3.41a2.233,2.233,0,0,0-1.786,3.264Z" transform="translate(-82.369 -140.513)"/><path class="i" d="M129.139,227.8l-1.567,2.314c-.122.179.081.406.4.447l29,3.719c.252,0,.471-.065.512-.219l.568-2.436c0-.171-.162-.341-.43-.382l-28.014-3.589a.487.487,0,0,0-.471.146Z" transform="translate(-79.75 -153.474)"/><path class="g" d="M133.414,231.453l-.747-.1c-.146,0-.252-.114-.227-.2l.763-3.175a.268.268,0,0,1,.309-.13l.755.1c.146,0,.252.106.227.2l-.763,3.167C133.706,231.412,133.568,231.469,133.414,231.453Z" transform="translate(-80.671 -153.51)"/><path class="g" d="M160.924,234.975l-.747-.089c-.146,0-.252-.114-.227-.211l.763-3.167c0-.089.162-.154.309-.138l.755.1c.146,0,.252.114.227.2l-.763,3.175C161.216,234.934,161.078,235,160.924,234.975Z" transform="translate(-85.843 -154.174)"/><path class="g" d="M147.172,233.215l-.747-.1c-.154,0-.26-.106-.235-.2l.763-3.167c0-.1.162-.154.317-.138l.747.1c.146,0,.252.114.235.2l-.771,3.175C147.464,233.174,147.318,233.231,147.172,233.215Z" transform="translate(-83.256 -153.843)"/><path class="g" d="M156.1,154.112c.1.544.471.934.812.861s.56-.56.455-1.1-.479-.934-.812-.861S156.015,153.568,156.1,154.112Z" transform="translate(-85.116 -139.441)"/><path class="g" d="M163.655,152.661c.106.544.479.926.812.861s.56-.568.455-1.112-.479-.926-.812-.861S163.557,152.117,163.655,152.661Z" transform="translate(-86.536 -139.167)"/><path class="g" d="M164,151.483l1.234-.633S164.812,152,164,151.483Z" transform="translate(-86.605 -139.037)"/><path class="n" d="M161.66,154.42a15.047,15.047,0,0,0,2.607,3.094,2.363,2.363,0,0,1-1.868.739Z" transform="translate(-86.165 -139.708)"/><path class="g" d="M156.931,161.713a.162.162,0,0,0,.195.252,4.36,4.36,0,0,1,3.963,0,.162.162,0,0,0,.219-.057.171.171,0,0,0-.049-.227,4.693,4.693,0,0,0-4.279,0S156.98,161.7,156.931,161.713Z" transform="translate(-85.269 -140.976)"/><path class="g" d="M153.373,151.792a.292.292,0,0,0,.114-.13,2.574,2.574,0,0,1,1.835-1.453.325.325,0,0,0,.284-.365.317.317,0,0,0-.357-.284,3.248,3.248,0,0,0-2.347,1.819.325.325,0,0,0,.471.414Z" transform="translate(-84.513 -138.793)"/><path class="g" d="M165.174,146.984l.041-.041a.325.325,0,0,0-.081-.455,3.248,3.248,0,0,0-2.939-.438.333.333,0,0,0-.179.422.325.325,0,0,0,.422.179,2.566,2.566,0,0,1,2.322.374A.317.317,0,0,0,165.174,146.984Z" transform="translate(-86.228 -138.102)"/><path class="g" d="M156.47,152.935l1.234-.625S157.225,153.455,156.47,152.935Z" transform="translate(-85.19 -139.311)"/><path class="i" d="M103.109,281.746a4.32,4.32,0,0,1-4.32-4.279c-.114-11.53,3.727-21.266,11.108-28.152,9.086-8.477,23.256-12.415,39.918-11.1,11.685.926,19.179-1.916,27.852-5.221,1.429-.536,2.866-1.088,4.344-1.624a4.321,4.321,0,0,1,2.956,8.12c-1.437.52-2.834,1.056-4.222,1.583-8.843,3.362-17.978,6.829-31.611,5.757-14.21-1.129-26.049,2-33.341,8.8-5.684,5.262-8.453,12.578-8.364,21.754a4.32,4.32,0,0,1-4.279,4.36Z" transform="translate(-74.345 -154.125)"/><path class="i" d="M0,0H18.505a5.822,5.822,0,0,1,5.822,5.822v20.86A5.822,5.822,0,0,1,18.505,32.5H0V0Z" transform="translate(128.669 91.465) rotate(159.88)"/><path class="o" d="M0,0H18.505a5.822,5.822,0,0,1,5.822,5.822v20.86A5.822,5.822,0,0,1,18.505,32.5H0V0Z" transform="translate(128.669 91.465) rotate(159.88)"/><path class="p" d="M203.834,214.184l7.755-2.834,11.173,30.515-7.755,2.842a4.685,4.685,0,0,1-1.153-1.786L204.11,216.3A4.629,4.629,0,0,1,203.834,214.184Z" transform="translate(-94.09 -150.411)"/><rect class="i" width="0.812" height="5.408" transform="translate(134.151 68.818) rotate(-20.12)"/><path class="i" d="M228.647,214.237l-2.736-7.487a6.626,6.626,0,0,0-6.212-4.328,6.5,6.5,0,0,0-2.257.4l-4.937,1.811-.284-.763,4.945-1.811a7.308,7.308,0,0,1,2.533-.447,7.454,7.454,0,0,1,6.975,4.872l2.736,7.487Z" transform="translate(-95.671 -148.58)"/><rect class="i" width="16.841" height="38.075" rx="5.62" transform="matrix(-0.94, 0.34, -0.34, -0.94, 140.344, 89.476)"/><path class="g" d="M221.106,217.5a2.436,2.436,0,1,1-3.118-1.453,2.436,2.436,0,0,1,3.118,1.453Z" transform="translate(-96.453 -151.266)"/><path class="g" d="M228.576,237.889a2.436,2.436,0,1,1-1.262-1.375,2.436,2.436,0,0,1,1.262,1.375Z" transform="translate(-97.857 -155.099)"/><path class="h" d="M137.541,225.782l-.065-.073c-1.267-1.267-2.607-2.647-3.816-4.06s-2.4-2.826-3.475-4.287a40.12,40.12,0,0,1-2.883-4.474,23.324,23.324,0,0,1-1.567-3.467c.487-1.624,1.007-3.248,1.624-4.807.706-1.876,1.5-3.719,2.371-5.538s1.795-3.605,2.793-5.351c.487-.877,1-1.746,1.527-2.6l.812-1.25c.252-.406.552-.812.763-1.161l.089-.13a4.06,4.06,0,0,0-6.626-4.685c-.406.552-.715.991-1.039,1.47s-.617.958-.926,1.437c-.593.958-1.169,1.924-1.721,2.907a64.149,64.149,0,0,0-2.98,6.041c-.455,1.023-.812,2.071-1.275,3.118a26.549,26.549,0,0,0-1.1,3.2,59.947,59.947,0,0,0-1.7,6.569v.187a3.248,3.248,0,0,0,.122,1.778,26.618,26.618,0,0,0,3.11,5.879,39.154,39.154,0,0,0,4.011,4.872,50.1,50.1,0,0,0,4.539,4.1,48.292,48.292,0,0,0,5.01,3.5,2.014,2.014,0,0,0,2.436-3.167Z" transform="translate(-78.01 -144.949)"/><path class="h" d="M150.65,239.842l-.106-.211A5.034,5.034,0,0,0,147,236.87l-6.163-1.25-3.013,1.5c.325,3.378,5.148,5.4,5.148,5.4l1.372,1.567a2.842,2.842,0,0,0,3.768.447l1.624-1.161a2.826,2.826,0,0,0,.918-3.532Z" transform="translate(-81.683 -154.973)"/><path class="i" d="M133.556,178.532c-3.419,1.567-7.056,6.991-7.056,6.991l7.308,13.682s8.307-9.573,7.608-14.364C140.848,180.773,137.909,176.534,133.556,178.532Z" transform="translate(-79.555 -144.145)"/><g class="l" transform="translate(46.945 33.877)"><path class="b" d="M133.556,178.532c-3.419,1.567-7.056,6.991-7.056,6.991l7.308,13.682s8.307-9.573,7.608-14.364C140.848,180.773,137.909,176.534,133.556,178.532Z" transform="translate(-126.5 -178.022)"/></g></g><g transform="translate(221.902 100.57)"><path class="i" d="M406.276,352.894c-7.154,0-14.186-1.47-17.6-5.919-16.143-21.112-16-63.58-15.858-104.675.081-22.127,1.827-43.036-.633-59.276-1.445-9.573-6.5-16.143-11.6-19.537-7.568-5-17.961-2.314-22.4-1.169a4.319,4.319,0,1,1-2.16-8.364c5.546-1.436,18.554-4.79,29.322,2.323,7.267,4.8,13.552,13.366,15.379,25.456,2.558,16.89.812,38.107.731,60.567-.138,39.65-.276,80.648,14.08,99.4,1.161,1.51,5.684,2.866,13.2,2.477.666,0,1.315-.073,1.957-.13a4.239,4.239,0,0,1-.438-1.892,4.32,4.32,0,0,1,4.32-4.32c9.444,0,14.413.812,15.371,5.132.276,1.242.422,4.36-4.141,6.5C422.394,351.059,414.258,352.894,406.276,352.894Z" transform="translate(-284.466 -122.129)"/><path class="q" d="M304.83,399.681l-8.81-3.467,4.645-15.274,8.818,3.459Z" transform="translate(-277.553 -165.189)"/><path class="g" d="M293.033,398.571l9.939,3.9a.609.609,0,0,1,.374.65l-.974,6.187a1.015,1.015,0,0,1-1.38.771c-2.493-1.031-6.4-2.736-9.557-3.979-1.941-.763-5.635-1.981-8.323-3.037s-1.989-3.849-.812-3.654c5.351.861,7.4-.057,9.533-.853A1.624,1.624,0,0,1,293.033,398.571Z" transform="translate(-274.777 -168.481)"/><path class="k" d="M310,384.407l-8.818-3.467-2.4,7.876,8.818,3.467Z" transform="translate(-278.074 -165.189)"/><path class="i" d="M320.729,239.61s-7.974,39.414-11.019,58.854c-3.427,21.786-12.48,61.582-12.48,61.582l11.717,4.6s16.735-40.746,19.066-60.478c7.024-16.037,20.99-63.23,20.99-63.23Z" transform="translate(-277.781 -138.619)"/><path class="g" d="M296.53,386.9l12.862,5.059,2.2-3.9-14.381-5.96Z" transform="translate(-277.649 -165.407)"/><path class="i" d="M292.368,398.332a2.1,2.1,0,0,1-1.1-.812,1.007,1.007,0,0,1,0-.926.5.5,0,0,1,.422-.325c.853-.089,2.436,1.989,2.59,2.233a.164.164,0,0,1-.162.252A8.27,8.27,0,0,1,292.368,398.332Zm-.43-1.7a.406.406,0,0,0-.211-.041c-.049,0-.106,0-.162.138a.65.65,0,0,0,0,.633,3.243,3.243,0,0,0,2.225,1.007,6.382,6.382,0,0,0-1.851-1.738Z" transform="translate(-276.638 -168.07)"/><path class="i" d="M294.546,398.516a.13.13,0,0,1-.065-.049c-.52-.617-1.25-2.525-.812-3.183a.536.536,0,0,1,.641-.2.893.893,0,0,1,.568.447c.5.9-.065,2.8-.089,2.883a.171.171,0,0,1-.13.114.114.114,0,0,1-.114-.008Zm-.276-3.1H294.2c-.211-.049-.26,0-.284.073-.244.39.154,1.77.617,2.525a3.914,3.914,0,0,0,0-2.306A.568.568,0,0,0,294.27,395.414Z" transform="translate(-277.086 -167.841)"/><path class="k" d="M345.917,269c-4.417,5.473-6.163,19.423-6.147,31.051,2.98-8.209,6.4-18.635,9.4-28.1Z" transform="translate(-285.778 -144.144)"/><path class="q" d="M369.687,402.145h-9.468L358.96,386.23h9.468Z" transform="translate(-289.386 -166.184)"/><path class="g" d="M357.468,404.85h10.678a.593.593,0,0,1,.585.471l1.356,6.106a1.015,1.015,0,0,1-1.007,1.226c-2.7-.049-6.943-.211-10.337-.211-2.095,0-5.976.219-8.859.219s-3.248-2.85-2.087-3.11c5.3-1.161,6.878-2.753,8.567-4.279A1.673,1.673,0,0,1,357.468,404.85Z" transform="translate(-287.172 -169.684)"/><path class="k" d="M368.426,386.23H358.95l.658,8.209h9.476Z" transform="translate(-289.384 -166.184)"/><path class="i" d="M340.29,240.22s5.246,43.921,6.35,59.731c1.535,22.005,7.47,65.447,7.47,65.447H366.7s1.348-44.368-.926-64.107c3.134-17.223,2.144-59.747,2.144-59.747Z" transform="translate(-285.876 -138.734)"/><path class="g" d="M356.431,393.618h13.82l.625-4.425L355.31,388.9Z" transform="translate(-288.7 -166.686)"/><path class="i" d="M356.614,405.777a2.1,2.1,0,0,1-1.324-.349,1.015,1.015,0,0,1-.341-.861.52.52,0,0,1,.284-.463c.763-.39,2.98.974,3.248,1.129a.162.162,0,0,1,.081.162.187.187,0,0,1-.13.138A8.121,8.121,0,0,1,356.614,405.777Zm-1.023-1.421a.43.43,0,0,0-.211.041c-.041,0-.089.065-.1.187a.65.65,0,0,0,.219.593,3.3,3.3,0,0,0,2.436.122,6.56,6.56,0,0,0-2.322-.942Z" transform="translate(-288.631 -169.531)"/><path class="i" d="M358.729,405.164h-.081c-.706-.39-2.087-1.892-1.941-2.663a.528.528,0,0,1,.52-.422.869.869,0,0,1,.69.2c.812.658.966,2.639.974,2.72a.179.179,0,0,1-.073.154A.187.187,0,0,1,358.729,405.164Zm-1.389-2.785h-.073c-.211,0-.227.13-.235.171-.089.447.812,1.624,1.494,2.127a3.946,3.946,0,0,0-.812-2.16.609.609,0,0,0-.374-.138Z" transform="translate(-288.961 -169.161)"/><path class="q" d="M336.58,162.974h0l-7.584-.1c-2.55,0-5.083-.081-7.592-.122-.763,0-1.51-.049-2.265-.081.049,0,.081-.089.122-.13.536-.568,1.072-1.153,1.624-1.713q.414-.438.812-.853c.252-.276.577-.585.747-.812l.69-.877a4.2,4.2,0,0,0-4.4-6.642l-1.5.406c-.463.138-.926.292-1.389.447-.909.317-1.8.666-2.688,1.047A39.859,39.859,0,0,0,308,156.291a37.052,37.052,0,0,0-4.831,3.678,32.007,32.007,0,0,0-4.312,4.8,7.367,7.367,0,0,0-.812,1.4,7.113,7.113,0,0,0,3.67,9.362l.739.325a31.15,31.15,0,0,0,5.164,1.705c1.543.4,3,.658,4.442.9s2.842.438,4.239.609,2.777.3,4.157.414c2.753.244,5.481.365,8.2.447s5.384.081,8.209-.049a8.461,8.461,0,0,0-.276-16.914Z" transform="translate(-277.822 -122.054)"/><path class="g" d="M345.912,180.212c-6.553,7.47-22.322,4.677-22.322,4.677l.869-18.611a82.012,82.012,0,0,1,16.451-1.908C350.167,164.354,351.157,174.22,345.912,180.212Z" transform="translate(-282.737 -124.474)"/><path class="g" d="M328.512,174.491c-.39,3-.812,7.048-1.064,12.489-3.419,17.3-4.693,29.549-1.673,38.489,2.387,2.948,33.495,2.379,39.09,1.811,3.248-8.039,3.589-31.116,3.971-50.515a11.181,11.181,0,0,0-9.3-11.222,75.1,75.1,0,0,0-21.209-.715,11.173,11.173,0,0,0-9.817,9.663Z" transform="translate(-282.828 -124.478)"/><path class="k" d="M366.71,191.37c.106,5.911,4.393,15.355,9.216,20.146.292-4.994.479-10.41.625-15.875Z" transform="translate(-290.843 -129.55)"/><path class="q" d="M392.226,198.5l-.276-.65A61.712,61.712,0,0,0,387.979,190c-1.445-2.436-3-4.734-4.62-6.951s-3.329-4.336-5.083-6.4c-.893-1.023-1.778-2.046-2.712-3.037l-1.4-1.478-1.494-1.51a8.461,8.461,0,0,0-12.245,11.668l.244.268,4.766,5.3c1.624,1.8,3.175,3.638,4.718,5.465.747.918,1.518,1.835,2.217,2.769s1.437,1.835,2.136,2.761c1.007,1.4,1.981,2.8,2.85,4.174a20.857,20.857,0,0,1-.5,2.054,59.012,59.012,0,0,1-2.054,5.8c-.812,2.006-1.673,4.06-2.566,6.082s-1.851,4.133-2.7,6.163l-.081.179a4.271,4.271,0,0,0,6.821,4.8,67.4,67.4,0,0,0,5.091-5.262,64.954,64.954,0,0,0,4.572-5.765c.723-1.015,1.413-2.071,2.095-3.167a36.7,36.7,0,0,0,1.941-3.451,32.278,32.278,0,0,0,1.705-4,18.182,18.182,0,0,0,1.039-5.449A6.082,6.082,0,0,0,392.226,198.5Z" transform="translate(-289.254 -125.191)"/><path class="g" d="M366.26,165.911c10.954,1.876,18.091,16.7,18.091,16.7l-13.2,14.2s-7.608-7.746-12.18-14.925C354.039,174.08,358.416,164.579,366.26,165.911Z" transform="translate(-288.996 -124.74)"/><path class="g" d="M343.23,133.03c-1.835-3.077-2.436-7.308.926-11.62a3.41,3.41,0,0,1-3.345-1.624,20.129,20.129,0,0,1,13.065-4.547c9.825,0,10.556,3.792,10.223,6.382,6.723.43,11.628,17.913-5.416,21.006C348.93,132.356,343.23,133.03,343.23,133.03Z" transform="translate(-285.974 -115.237)"/><path class="g" d="M368.576,122.061s2.736-2.793-.666-6.171a4.58,4.58,0,0,1,3.2,3.183C371.588,121.038,370.265,122.613,368.576,122.061Z" transform="translate(-291.069 -115.36)"/><path class="q" d="M360.465,146.34c-.26,5.384-.747,11.506.154,15.8-1.4,2.2-4.969,4.734-11.368,5.3-2.274-1.291-5.278-4.45-4.23-6.074,2.72-1.746,3.873-7.032,3.094-10.986Z" transform="translate(-286.725 -121.084)"/><path class="k" d="M358.109,147.59l-9.249,3.029a14.51,14.51,0,0,1,.041,5.1,12.415,12.415,0,0,0,8.023-4.117,5.132,5.132,0,0,0,1.186-4.011Z" transform="translate(-287.487 -121.319)"/><path class="q" d="M362.671,133.119c-1.713,6.6-2.379,10.556-6.423,13.325-6.082,4.166-13.731-.5-14.031-7.479-.26-6.285,2.582-16.029,9.647-17.417a9.306,9.306,0,0,1,10.808,11.571Z" transform="translate(-286.235 -116.389)"/><path class="g" d="M364.922,124.2c-2.9,2.062-6.5,10.8.812,14.307C372.3,132.742,370.6,124.2,364.922,124.2Z" transform="translate(-289.851 -116.922)"/><path class="g" d="M363.632,124.134c1.242-5.749-13.268-8.721-17.864-2.006C344.209,126.172,362.755,129.745,363.632,124.134Z" transform="translate(-286.889 -115.808)"/><path class="g" d="M353.315,144.19h0a14.031,14.031,0,0,0-4.775-1.21.17.17,0,0,0-.171.179.236.236,0,0,0,.219.195,13.6,13.6,0,0,1,4.58,1.153.2.2,0,0,0,.252-.089.171.171,0,0,0-.106-.227Z" transform="translate(-287.395 -120.453)"/><path class="q" d="M367.784,143.573a6.5,6.5,0,0,1-4.515,2.038c-2.274.049-2.85-2.119-1.754-3.971.991-1.624,3.362-3.7,5.424-2.874S369.213,142.023,367.784,143.573Z" transform="translate(-289.765 -119.625)"/><path class="g" d="M354.182,135.449c-.106.544-.479.934-.812.861s-.552-.568-.447-1.112.479-.926.812-.812S354.288,134.881,354.182,135.449Z" transform="translate(-288.246 -118.833)"/><path class="g" d="M346.611,133.97c-.106.544-.479.926-.812.861s-.56-.568-.455-1.112.479-.934.812-.861S346.684,133.426,346.611,133.97Z" transform="translate(-286.821 -118.548)"/><path class="r" d="M348.438,135a19.92,19.92,0,0,1-3.508,4.149,3.147,3.147,0,0,0,2.607.869Z" transform="translate(-286.748 -118.952)"/><path class="g" d="M353.33,131.808a.349.349,0,0,1,.325.1,2.59,2.59,0,0,0,2.16.934.333.333,0,0,1,.374.276.317.317,0,0,1-.276.365,3.248,3.248,0,0,1-2.745-1.145.317.317,0,0,1,0-.455.413.413,0,0,1,.162-.073Z" transform="translate(-288.279 -118.351)"/><path class="g" d="M344.514,129.288a.292.292,0,0,1-.171-.106.325.325,0,0,1,.057-.463,3.248,3.248,0,0,1,2.9-.625.333.333,0,0,1,.211.414.349.349,0,0,1-.414.2h0a2.59,2.59,0,0,0-2.3.52.284.284,0,0,1-.284.057Z" transform="translate(-286.625 -117.633)"/><path class="q" d="M375.235,235.549l-6.975-.049,3.605,8.006s5.952-1.275,5.627-4.507Z" transform="translate(-291.135 -137.846)"/><path class="q" d="M363.822,241l1.145,2.257a2.712,2.712,0,0,0,3.419,1.283l2.59-1.031L367.37,235.5l-2.769,2.111A2.7,2.7,0,0,0,363.822,241Z" transform="translate(-290.245 -137.846)"/><path class="i" d="M310.468,214.392a4.328,4.328,0,0,1-3.094-7.308c3.1-3.2,5.9-5.684,8.372-7.852,5.96-5.254,8.014-7.308,7.82-11.246a39.563,39.563,0,0,0-1.543-7.162c-1.778-6.537-3.792-13.934-.341-19.87,1.851-3.191,4.994-5.375,9.346-6.5a4.319,4.319,0,1,1,2.16,8.364c-3.061.811-3.8,2.054-4.06,2.476-1.624,2.8-.057,8.6,1.21,13.252a45.1,45.1,0,0,1,1.835,9.013c.406,8.323-4.507,12.659-10.735,18.148-2.347,2.079-5.018,4.434-7.893,7.389a4.3,4.3,0,0,1-3.077,1.291Z" transform="translate(-279.464 -122.584)"/><path class="q" d="M322.816,151.5l6.756-1.73L328,158.41s-6.082.187-6.537-3.021Z" transform="translate(-282.336 -121.729)"/><path class="q" d="M335.827,154.35l-.52,2.257a2.834,2.834,0,0,1-3.151,2.168l-2.647-.365,1.575-8.64,3.1,1.34A2.834,2.834,0,0,1,335.827,154.35Z" transform="translate(-283.85 -121.729)"/><rect class="g" width="4.466" height="38.075" rx="2.233" transform="translate(26.918 75.928) rotate(44.99)"/><rect class="g" width="4.466" height="38.075" rx="2.233" transform="translate(39.398 88.393) rotate(45)"/><path class="i" d="M0,0H23.865a5.822,5.822,0,0,1,5.822,5.822v20.86A5.822,5.822,0,0,1,23.865,32.5H0Z" transform="translate(9.042 86.515) rotate(-45)"/><path class="o" d="M0,0H23.865a5.822,5.822,0,0,1,5.822,5.822v20.86A5.822,5.822,0,0,1,23.865,32.5H0Z" transform="translate(9.042 86.515) rotate(-45)"/><path class="p" d="M290.226,214.56,284.38,220.4l22.988,22.988,5.838-5.846a4.661,4.661,0,0,0-1.129-1.8l-20.048-20.008a4.661,4.661,0,0,0-1.8-1.169Z" transform="translate(-275.365 -133.91)"/><rect class="i" width="9.72" height="38.075" rx="4.86" transform="translate(4.385 87.19) rotate(-45)"/></g><g transform="translate(105.04 37.22)"><rect class="b" width="194.783" height="46.706" rx="8.42" transform="translate(0.568 0.601)"/><path class="g" d="M317.874,85.128H136.8a7.446,7.446,0,0,1-7.438-7.438V44.658A7.446,7.446,0,0,1,136.8,37.22H317.874a7.446,7.446,0,0,1,7.438,7.438V77.69a7.446,7.446,0,0,1-7.438,7.438ZM136.8,38.422a6.244,6.244,0,0,0-6.236,6.236V77.69a6.244,6.244,0,0,0,6.236,6.236H317.874a6.244,6.244,0,0,0,6.236-6.236V44.658a6.244,6.244,0,0,0-6.236-6.236Z" transform="translate(-129.36 -37.22)"/><g class="s" transform="translate(16.581 14.171)"><path class="g" d="M149.78,72.651V55.079h6.626a16.938,16.938,0,0,1,2.68.162,5.424,5.424,0,0,1,2.168.812,4.287,4.287,0,0,1,1.4,1.7,5.684,5.684,0,0,1-.893,6.2q-1.421,1.543-5.148,1.551H152.1v7.146Zm2.322-9.216h4.547a4.807,4.807,0,0,0,3.2-.812,2.972,2.972,0,0,0,.95-2.355,3.175,3.175,0,0,0-.56-1.892,2.647,2.647,0,0,0-1.47-1.039,10.37,10.37,0,0,0-2.168-.154h-4.5Z" transform="translate(-149.78 -54.748)"/><path class="g" d="M177.743,72.148a8.315,8.315,0,0,1-2.306,1.437,6.756,6.756,0,0,1-2.379.414,4.653,4.653,0,0,1-3.248-1.023,3.378,3.378,0,0,1-1.121-2.615,3.5,3.5,0,0,1,.422-1.713,3.654,3.654,0,0,1,1.129-1.2,5.456,5.456,0,0,1,1.559-.706,16.721,16.721,0,0,1,1.916-.325,19.853,19.853,0,0,0,3.849-.739c0-.292,0-.487,0-.56a2.379,2.379,0,0,0-.609-1.859,3.622,3.622,0,0,0-2.436-.731,3.873,3.873,0,0,0-2.249.528,3.329,3.329,0,0,0-1.072,1.892l-2.111-.292a5.262,5.262,0,0,1,.95-2.184,4.158,4.158,0,0,1,1.908-1.283,8.477,8.477,0,0,1,2.891-.447,7.576,7.576,0,0,1,2.647.382,3.037,3.037,0,0,1,2.168,2.436,12.072,12.072,0,0,1,.106,1.989V68.42a31.175,31.175,0,0,0,.138,3.808,5.058,5.058,0,0,0,.544,1.527H178.19a4.539,4.539,0,0,1-.447-1.608Zm-.179-4.823a15.379,15.379,0,0,1-3.524.812,7.957,7.957,0,0,0-1.884.438,1.86,1.86,0,0,0-.853.7,1.9,1.9,0,0,0,.357,2.436,2.769,2.769,0,0,0,1.908.577,4.442,4.442,0,0,0,2.217-.544,3.378,3.378,0,0,0,1.429-1.494,5.254,5.254,0,0,0,.349-2.152Z" transform="translate(-153.335 -55.811)"/><path class="g" d="M185.838,74.738l2.095.309a2,2,0,0,0,.731,1.413,3.549,3.549,0,0,0,2.192.6,3.808,3.808,0,0,0,2.314-.6,2.964,2.964,0,0,0,1.1-1.673,13.675,13.675,0,0,0,.154-2.769,4.434,4.434,0,0,1-3.524,1.624,4.8,4.8,0,0,1-4.06-1.892A7.308,7.308,0,0,1,185.4,67.2a8.364,8.364,0,0,1,.666-3.362,5.278,5.278,0,0,1,1.908-2.379,5.164,5.164,0,0,1,2.948-.812,4.572,4.572,0,0,1,3.711,1.819V60.934h1.989V71.969a10.556,10.556,0,0,1-.6,4.214,4.45,4.45,0,0,1-1.924,1.965,6.618,6.618,0,0,1-3.248.715,6.114,6.114,0,0,1-3.686-1.023,3.459,3.459,0,0,1-1.324-3.1Zm1.778-7.649a5.489,5.489,0,0,0,1,3.654,3.151,3.151,0,0,0,2.493,1.153,3.191,3.191,0,0,0,2.493-1.145,5.319,5.319,0,0,0,1.007-3.589,5.173,5.173,0,0,0-1.039-3.524,3.175,3.175,0,0,0-2.493-1.186,3.1,3.1,0,0,0-2.436,1.169,5.164,5.164,0,0,0-1.023,3.483Z" transform="translate(-156.476 -55.795)"/><path class="g" d="M211.81,69.613l2.233.276a5.513,5.513,0,0,1-1.957,3.037A5.9,5.9,0,0,1,208.44,74a5.814,5.814,0,0,1-4.45-1.681,6.723,6.723,0,0,1-1.624-4.831A7.04,7.04,0,0,1,203.99,62.5a5.611,5.611,0,0,1,4.287-1.77,5.432,5.432,0,0,1,4.174,1.738,6.886,6.886,0,0,1,1.624,4.872v.577h-9.492a4.872,4.872,0,0,0,1.186,3.248,3.54,3.54,0,0,0,2.663,1.112,3.313,3.313,0,0,0,2.022-.625A4.109,4.109,0,0,0,211.81,69.613Zm-7.081-3.483h7.081A4.336,4.336,0,0,0,211,63.693a3.313,3.313,0,0,0-2.68-1.25,3.4,3.4,0,0,0-2.493,1,3.865,3.865,0,0,0-1.121,2.688Z" transform="translate(-159.663 -55.81)"/><path class="g" d="M228.45,73.7V60.933h1.941v1.811a4.588,4.588,0,0,1,4.06-2.095,5.3,5.3,0,0,1,2.119.414,3.329,3.329,0,0,1,1.445,1.08,4.255,4.255,0,0,1,.674,1.624,13.294,13.294,0,0,1,.114,2.095V73.69h-2.152V65.951a5.984,5.984,0,0,0-.252-1.973,2.128,2.128,0,0,0-.893-1.039,2.866,2.866,0,0,0-1.51-.39,3.492,3.492,0,0,0-2.379.877c-.666.585-1,1.689-1,3.321V73.7Z" transform="translate(-164.57 -55.794)"/><path class="g" d="M244.276,67.339a6.568,6.568,0,0,1,1.965-5.237,5.928,5.928,0,0,1,4-1.413,5.684,5.684,0,0,1,4.287,1.721,6.5,6.5,0,0,1,1.7,4.75,8.477,8.477,0,0,1-.739,3.865,5.246,5.246,0,0,1-2.144,2.184,6.26,6.26,0,0,1-3.077.812,5.684,5.684,0,0,1-4.344-1.713A6.837,6.837,0,0,1,244.276,67.339Zm2.217,0A5.449,5.449,0,0,0,247.556,71a3.427,3.427,0,0,0,2.688,1.218,3.378,3.378,0,0,0,2.671-1.226,5.522,5.522,0,0,0,1.072-3.727,5.2,5.2,0,0,0-1.08-3.573,3.557,3.557,0,0,0-5.351,0,5.408,5.408,0,0,0-1.072,3.646Z" transform="translate(-167.542 -55.802)"/><path class="g" d="M266.517,70.809l.317,1.908a7.916,7.916,0,0,1-1.624.195,3.727,3.727,0,0,1-1.819-.374,2.16,2.16,0,0,1-.918-.974,7.957,7.957,0,0,1-.26-2.55V61.707H260.63v-1.73h1.583V56.859l2.144-1.3v4.417h2.168v1.681h-2.168V69.1a3.888,3.888,0,0,0,.114,1.186.918.918,0,0,0,.374.414,1.4,1.4,0,0,0,.739.162,7,7,0,0,0,.934-.057Z" transform="translate(-170.62 -54.839)"/><path class="g" d="M279.078,72.575V61.524H277.17V59.81h1.908V58.487a5.83,5.83,0,0,1,.227-1.924,2.72,2.72,0,0,1,1.1-1.364,3.938,3.938,0,0,1,2.2-.52,11.035,11.035,0,0,1,2.014.211l-.325,1.884a7.112,7.112,0,0,0-1.275-.122,1.916,1.916,0,0,0-1.389.422,2.3,2.3,0,0,0-.406,1.567V59.81h2.485v1.681h-2.485V72.575Z" transform="translate(-173.729 -54.671)"/><path class="g" d="M286.286,67.339a6.568,6.568,0,0,1,1.965-5.237,5.952,5.952,0,0,1,4.011-1.413,5.684,5.684,0,0,1,4.287,1.721,6.5,6.5,0,0,1,1.681,4.75,8.486,8.486,0,0,1-.731,3.865,5.213,5.213,0,0,1-2.152,2.184,6.228,6.228,0,0,1-3.069.812,5.733,5.733,0,0,1-4.344-1.713A6.837,6.837,0,0,1,286.286,67.339Zm2.225,0A5.4,5.4,0,0,0,289.574,71a3.548,3.548,0,0,0,5.359,0A5.562,5.562,0,0,0,296,67.274a5.238,5.238,0,0,0-1.072-3.573,3.557,3.557,0,0,0-5.351,0,5.368,5.368,0,0,0-1.088,3.638Z" transform="translate(-175.44 -55.802)"/><path class="g" d="M312.423,73.765V71.9a4.653,4.653,0,0,1-4.06,2.152,5.051,5.051,0,0,1-2.1-.43,3.451,3.451,0,0,1-1.445-1.08,4.133,4.133,0,0,1-.666-1.624,10.932,10.932,0,0,1-.13-2.014V61h2.16v7.064a12.423,12.423,0,0,0,.13,2.274,2.274,2.274,0,0,0,.861,1.34,2.663,2.663,0,0,0,1.624.487,3.532,3.532,0,0,0,1.819-.5,2.761,2.761,0,0,0,1.21-1.356,6.788,6.788,0,0,0,.349-2.485V61h2.16V73.765Z" transform="translate(-178.776 -55.861)"/><path class="g" d="M320.91,73.7V60.933h1.941v1.811a4.588,4.588,0,0,1,4.06-2.095,5.3,5.3,0,0,1,2.119.414,3.329,3.329,0,0,1,1.445,1.08,4.254,4.254,0,0,1,.674,1.624,13.29,13.29,0,0,1,.114,2.095V73.69H329.1V65.951a5.986,5.986,0,0,0-.252-1.973,2.128,2.128,0,0,0-.893-1.039,2.866,2.866,0,0,0-1.51-.39,3.508,3.508,0,0,0-2.379.877c-.666.585-1,1.689-1,3.321V73.7Z" transform="translate(-181.952 -55.794)"/><path class="g" d="M345.807,72.652V71.028a3.954,3.954,0,0,1-3.565,1.892,4.969,4.969,0,0,1-2.793-.812,5.53,5.53,0,0,1-1.981-2.347,8.12,8.12,0,0,1-.7-3.451,9.054,9.054,0,0,1,.633-3.459,4.921,4.921,0,0,1,1.908-2.379,5.083,5.083,0,0,1,2.842-.812,4.231,4.231,0,0,1,2.046.487,4.157,4.157,0,0,1,1.462,1.259V55.08H347.8V72.652Zm-6.821-6.35a5.53,5.53,0,0,0,1.031,3.654,3.118,3.118,0,0,0,2.436,1.21A3.069,3.069,0,0,0,344.89,70a5.319,5.319,0,0,0,.983-3.524,5.985,5.985,0,0,0-1.007-3.841,3.085,3.085,0,0,0-2.477-1.218,3,3,0,0,0-2.436,1.169A5.781,5.781,0,0,0,338.986,66.3Z" transform="translate(-184.934 -54.748)"/></g><circle class="g" cx="15.054" cy="15.054" r="15.054" transform="translate(82.905 41.193)"/><circle class="b" cx="12.813" cy="12.813" r="12.813" transform="translate(85.146 43.434)"/><path class="i" d="M256.658,99.636h-6.009l5.043-14.916L239.33,105.158h6.009L240.3,120.074Z" transform="translate(-150.034 -46.15)"/><rect class="g" width="2.533" height="28.493" transform="translate(108.928 65.42) rotate(135)"/></g></g></svg>