<svg xmlns="http://www.w3.org/2000/svg" width="70.482" height="82" viewBox="0 0 70.482 82">
  <g id="Group_1483" data-name="Group 1483" transform="translate(-1837.862 1634.996)">
    <path id="Path_7565" data-name="Path 7565" d="M2008.939-1562.461v-2.534c.216-.01.42-.027.623-.027,2.327,0,4.654-.009,6.981,0a5.118,5.118,0,0,1,5.185,5.21q.006,31.318,0,62.637a5.114,5.114,0,0,1-5.153,5.175q-21.743.008-43.487,0a5.115,5.115,0,0,1-5.164-5.164c-.01-4.5.005-9.009-.014-13.514a.744.744,0,0,1,.569-.842c.641-.213,1.269-.462,2.005-.734v.805q0,6.981,0,13.962a2.625,2.625,0,0,0,2.919,2.927q21.455,0,42.911.006a2.575,2.575,0,0,0,2.591-1.509,3.536,3.536,0,0,0,.251-1.427q.019-18.766.01-37.531,0-12.233,0-24.466c0-1.978-1.005-2.973-3-2.974h-7.227Z" transform="translate(-113.387 -61.006)" fill="#7288a1"/>
    <path id="Path_7566" data-name="Path 7566" d="M1860.711-1301.455c0-.726,0-1.452,0-2.178a1.284,1.284,0,0,1,.733-1.25,1.273,1.273,0,0,1,1.43.215q6.415,4.948,12.828,9.9a1.272,1.272,0,0,1-.011,2.2q-6.4,4.961-12.825,9.9a1.3,1.3,0,0,1-1.438.2,1.271,1.271,0,0,1-.719-1.258c0-1.367-.022-2.734.007-4.1.011-.52-.126-.7-.677-.684a16.565,16.565,0,0,0-10.98,4.589,20.445,20.445,0,0,0-6.714,16.017c.007.427.04.854.039,1.28a1.314,1.314,0,0,1-1.006,1.306,1.255,1.255,0,0,1-1.437-.808,26.252,26.252,0,0,1-1.89-6.891,23.81,23.81,0,0,1,1.129-10.984c2.114-5.842,5.768-10.381,11.463-13.071a19.057,19.057,0,0,1,9.16-1.719c.9.043.9.047.9-.869q0-.16,0-.32v-1.473Zm2.609.367c-.022.357-.045.562-.046.766,0,.939.01,1.879-.007,2.818a1.313,1.313,0,0,1-1.594,1.441c-.787-.055-1.573-.146-2.361-.167a16.526,16.526,0,0,0-11.523,3.977,20.54,20.54,0,0,0-7.139,13c-.215,1.406-.181,2.85-.27,4.429.2-.169.251-.189.262-.222.1-.281.191-.565.289-.846a22.047,22.047,0,0,1,13.029-14.005,17.434,17.434,0,0,1,7.918-1.127,1.313,1.313,0,0,1,1.389,1.489c.013.619,0,1.238,0,1.857v1.459l9.66-7.45Z" transform="translate(0 -287.704)" fill="#7288a1"/>
    <path id="Path_7567" data-name="Path 7567" d="M2051.533-1443.474q-7.846,0-15.693,0a2.607,2.607,0,0,1-2.855-2.862c0-1.986-.006-3.972,0-5.957a2.575,2.575,0,0,1,2.685-2.709q15.885-.006,31.771,0a2.572,2.572,0,0,1,2.694,2.7q.011,2.979,0,5.957a2.608,2.608,0,0,1-2.847,2.871Q2059.411-1443.47,2051.533-1443.474Zm16.021-8.915H2035.59v6.3h31.964Z" transform="translate(-170.122 -156.931)" fill="#7288a1"/>
    <path id="Path_7568" data-name="Path 7568" d="M2035.606-1168.212v1.948h31.981v-6.342h-26.036l-.07-.148c.611-.473,1.263-.9,1.823-1.429a3.912,3.912,0,0,1,2.943-1.032c7,.053,14.005.026,21.008.028a2.631,2.631,0,0,1,2.948,2.96c0,1.943,0,3.886,0,5.828a2.58,2.58,0,0,1-2.72,2.739q-15.852.005-31.7,0a2.566,2.566,0,0,1-2.719-2.6.644.644,0,0,1,.2-.465c.376-.237.8-.39,1.181-.623C2034.807-1167.574,2035.131-1167.855,2035.606-1168.212Z" transform="translate(-170.189 -400.876)" fill="#7288a1"/>
    <path id="Path_7569" data-name="Path 7569" d="M2051.2-1315.186h5.887c8.6,0,17.208.033,25.812-.026a2.836,2.836,0,0,1,3.072,3.08c-.095,1.9-.019,3.8-.023,5.7a2.586,2.586,0,0,1-2.746,2.776q-9,.005-18,.01a.8.8,0,0,1-.771-.48c-.467-.721-1.053-1.366-1.6-2.058h20.51v-6.439h-.788q-13.707,0-27.413.014a2.386,2.386,0,0,1-1.682-.582c-.752-.644-1.557-1.225-2.341-1.833Z" transform="translate(-185.935 -278.815)" fill="#7288a1"/>
    <path id="Path_7570" data-name="Path 7570" d="M2099.514-1619.622q-4.354,0-8.706,0a2.6,2.6,0,0,1-2.825-2.824c0-1.622-.006-3.243,0-4.865a2.586,2.586,0,0,1,2.691-2.7c.79-.008,1.58-.022,2.368.005.39.013.552-.125.663-.5a5.981,5.981,0,0,1,6.03-4.484,5.986,5.986,0,0,1,5.53,4.3c.145.521.351.728.906.69.765-.051,1.536-.025,2.3-.007a2.568,2.568,0,0,1,2.565,2.633q.018,2.561,0,5.121a2.568,2.568,0,0,1-2.629,2.634C2105.446-1619.615,2102.48-1619.622,2099.514-1619.622Zm8.933-7.832c-1.3,0-2.511,0-3.727,0-1.268,0-1.635-.349-1.7-1.605a3.532,3.532,0,0,0-3.707-3.369,3.535,3.535,0,0,0-3.305,3.452c-.049,1.115-.466,1.515-1.591,1.522-.448,0-.9,0-1.345,0H2090.6v5.223h17.846Z" transform="translate(-218.075 0)" fill="#7288a1"/>
    <path id="Path_7571" data-name="Path 7571" d="M1970.557-1528.019l-2.528.338c-.013-.263-.034-.485-.034-.706q0-15.691,0-31.382a5.118,5.118,0,0,1,5.221-5.237c2.434-.008,4.867,0,7.3,0a1.771,1.771,0,0,1,.237.038v2.52h-1.532q-2.882,0-5.764,0a2.619,2.619,0,0,0-2.9,2.882q0,15.339,0,30.678Z" transform="translate(-113.459 -61.02)" fill="#7288a1"/>
  </g>
</svg>
