<svg xmlns="http://www.w3.org/2000/svg" width="53.821" height="81.995" viewBox="0 0 53.821 81.995">
  <g id="Group_1483" data-name="Group 1483" transform="translate(-1854.523 1634.996)">
    <path id="Path_7565" data-name="Path 7565" d="M2008.939-1562.461v-2.534c.216-.01.42-.027.623-.027,2.327,0,4.654-.009,6.981,0a5.118,5.118,0,0,1,5.185,5.21q.006,31.318,0,62.637a5.114,5.114,0,0,1-5.153,5.175q-21.743.008-43.487,0a5.115,5.115,0,0,1-5.164-5.164c-.01-4.5.005-39.009-.014-43.514a.744.744,0,0,1,.569-.842c.641-.213,1.269-.462,2.005-.734v.805c0,4.654,0,39.308,0,43.962a2.625,2.625,0,0,0,2.919,2.927q21.455,0,42.911.006a2.575,2.575,0,0,0,2.591-1.509,3.536,3.536,0,0,0,.251-1.427q.019-18.766.01-37.531,0-12.233,0-24.466c0-1.978-1.005-2.973-3-2.974h-7.227Z" transform="translate(-113.387 -61.006)" fill="#7288a1"/>
    <path id="Path_7567" data-name="Path 7567" d="M2051.533-1443.474q-7.846,0-15.693,0a2.607,2.607,0,0,1-2.855-2.862c0-1.986-.006-3.972,0-5.957a2.575,2.575,0,0,1,2.685-2.709q15.885-.006,31.771,0a2.572,2.572,0,0,1,2.694,2.7q.011,2.979,0,5.957a2.608,2.608,0,0,1-2.847,2.871Q2059.411-1443.47,2051.533-1443.474Zm16.021-8.915H2035.59v6.3h31.964Z" transform="translate(-170.122 -156.931)" fill="#7288a1"/>
    <path id="Path_7570" data-name="Path 7570" d="M2099.514-1619.622q-4.354,0-8.706,0a2.6,2.6,0,0,1-2.825-2.824c0-1.622-.006-3.243,0-4.865a2.586,2.586,0,0,1,2.691-2.7c.79-.008,1.58-.022,2.368.005.39.013.552-.125.663-.5a5.981,5.981,0,0,1,6.03-4.484,5.986,5.986,0,0,1,5.53,4.3c.145.521.351.728.906.69.765-.051,1.536-.025,2.3-.007a2.568,2.568,0,0,1,2.565,2.633q.018,2.561,0,5.121a2.568,2.568,0,0,1-2.629,2.634C2105.446-1619.615,2102.48-1619.622,2099.514-1619.622Zm8.933-7.832c-1.3,0-2.511,0-3.727,0-1.268,0-1.635-.349-1.7-1.605a3.532,3.532,0,0,0-3.707-3.369,3.535,3.535,0,0,0-3.305,3.452c-.049,1.115-.466,1.515-1.591,1.522-.448,0-.9,0-1.345,0H2090.6v5.223h17.846Z" transform="translate(-218.075 0)" fill="#7288a1"/>
    <path id="Path_7571" data-name="Path 7571" d="M1970.557-1528.019l-2.528.338c-.013-.263-.034-.485-.034-.706q0-15.691,0-31.382a5.118,5.118,0,0,1,5.221-5.237c2.434-.008,4.867,0,7.3,0a1.771,1.771,0,0,1,.237.038v2.52h-1.532q-2.882,0-5.764,0a2.619,2.619,0,0,0-2.9,2.882q0,15.339,0,30.678Z" transform="translate(-113.459 -61.02)" fill="#7288a1"/>
    <path id="Path_7573" data-name="Path 7573" d="M2051.533-1443.474q-7.846,0-15.693,0a2.607,2.607,0,0,1-2.855-2.862c0-1.986-.006-3.972,0-5.957a2.575,2.575,0,0,1,2.685-2.709q15.885-.006,31.771,0a2.572,2.572,0,0,1,2.694,2.7q.011,2.979,0,5.957a2.608,2.608,0,0,1-2.847,2.871Q2059.411-1443.47,2051.533-1443.474Zm16.021-8.915H2035.59v6.3h31.964Z" transform="translate(-170.122 -138.931)" fill="#7288a1"/>
    <path id="Path_7574" data-name="Path 7574" d="M2051.533-1443.474q-7.846,0-15.693,0a2.607,2.607,0,0,1-2.855-2.862c0-1.986-.006-3.972,0-5.957a2.575,2.575,0,0,1,2.685-2.709q15.885-.006,31.771,0a2.572,2.572,0,0,1,2.694,2.7q.011,2.979,0,5.957a2.608,2.608,0,0,1-2.847,2.871Q2059.411-1443.47,2051.533-1443.474Zm16.021-8.915H2035.59v6.3h31.964Z" transform="translate(-170.122 -120.931)" fill="#7288a1"/>
  </g>
</svg>
