<svg xmlns="http://www.w3.org/2000/svg" width="45.291" height="45.31" viewBox="0 0 45.291 45.31">
  <g id="Group_1268" data-name="Group 1268" transform="translate(-0.001)">
    <path id="Path_7508" data-name="Path 7508" d="M2853.406,909.614h10.341V898.3h24.575v11.3H2898.7v34.01h-45.292Zm12.285-9.438v41.541h5.65V930.436h9.454v11.276h5.612V900.176Zm-10.4,11.343v30.2h8.433v-30.2Zm33.079,0v30.2h8.433v-30.2Zm-9.514,30.2v-9.39h-5.619v9.39Z" transform="translate(-2853.406 -898.3)" fill="#7288a1"/>
    <path id="Path_7509" data-name="Path 7509" d="M3030.21,953h-1.816v-4.682h1.816Z" transform="translate(-3011.855 -943.587)" fill="#7288a1"/>
    <path id="Path_7510" data-name="Path 7510" d="M3083.394,948.144h1.816v4.682h-1.816Z" transform="translate(-3061.657 -943.433)" fill="#7288a1"/>
    <path id="Path_7511" data-name="Path 7511" d="M3140.121,953.05h-1.836v-4.665h1.836Z" transform="translate(-3111.36 -943.651)" fill="#7288a1"/>
    <path id="Path_7512" data-name="Path 7512" d="M3028.4,1018.145h1.814v4.681H3028.4Z" transform="translate(-3011.862 -1006.818)" fill="#7288a1"/>
    <path id="Path_7513" data-name="Path 7513" d="M3085.215,1023H3083.4v-4.682h1.815Z" transform="translate(-3061.663 -1006.977)" fill="#7288a1"/>
    <path id="Path_7514" data-name="Path 7514" d="M3140.211,1023H3138.4v-4.682h1.816Z" transform="translate(-3111.46 -1006.975)" fill="#7288a1"/>
    <path id="Path_7515" data-name="Path 7515" d="M3028.391,1088.155h1.817v4.682h-1.817Z" transform="translate(-3011.853 -1070.211)" fill="#7288a1"/>
    <path id="Path_7516" data-name="Path 7516" d="M3085.161,1088.411v4.648h-1.847v-4.648Z" transform="translate(-3061.585 -1070.443)" fill="#7288a1"/>
    <path id="Path_7517" data-name="Path 7517" d="M3138.393,1088.145h1.816v4.682h-1.816Z" transform="translate(-3111.458 -1070.202)" fill="#7288a1"/>
    <path id="Path_7518" data-name="Path 7518" d="M3030.127,1158.378v4.653h-1.849v-4.653Z" transform="translate(-3011.75 -1133.798)" fill="#7288a1"/>
    <path id="Path_7519" data-name="Path 7519" d="M3085.219,1163.012h-1.814v-4.68h1.814Z" transform="translate(-3061.667 -1133.756)" fill="#7288a1"/>
    <path id="Path_7520" data-name="Path 7520" d="M3140.262,1158.358v4.658h-1.824v-4.658Z" transform="translate(-3111.499 -1133.779)" fill="#7288a1"/>
    <path id="Path_7521" data-name="Path 7521" d="M2910.213,1073H2908.4v-4.682h1.815Z" transform="translate(-2903.2 -1052.25)" fill="#7288a1"/>
    <path id="Path_7522" data-name="Path 7522" d="M2910.112,1138.371v4.655h-1.838v-4.655Z" transform="translate(-2903.088 -1115.681)" fill="#7288a1"/>
    <path id="Path_7523" data-name="Path 7523" d="M2910.217,1213.011H2908.4v-4.681h1.815Z" transform="translate(-2903.204 -1179.028)" fill="#7288a1"/>
    <path id="Path_7524" data-name="Path 7524" d="M2910.206,1283h-1.816v-4.682h1.816Z" transform="translate(-2903.193 -1242.398)" fill="#7288a1"/>
    <path id="Path_7525" data-name="Path 7525" d="M3258.4,1068.142h1.815v4.682H3258.4Z" transform="translate(-3220.12 -1052.09)" fill="#7288a1"/>
    <path id="Path_7526" data-name="Path 7526" d="M3258.4,1138.141h1.815v4.682H3258.4Z" transform="translate(-3220.121 -1115.473)" fill="#7288a1"/>
    <path id="Path_7527" data-name="Path 7527" d="M3260.218,1213.011H3258.4v-4.681h1.815Z" transform="translate(-3220.126 -1179.028)" fill="#7288a1"/>
    <path id="Path_7528" data-name="Path 7528" d="M3260.209,1283h-1.815v-4.681h1.815Z" transform="translate(-3220.118 -1242.401)" fill="#7288a1"/>
  </g>
</svg>
