<svg id="iconfinder_Csv_6783484" xmlns="http://www.w3.org/2000/svg" xmlns:xlink="http://www.w3.org/1999/xlink" width="15.892" height="22.233" viewBox="0 0 15.892 22.233">
  <defs>
    <linearGradient id="linear-gradient" x1="0.033" y1="0.166" x2="1.063" y2="0.903" gradientUnits="objectBoundingBox">
      <stop offset="0" stop-color="#78d2c4"/>
      <stop offset="1" stop-color="#52ceb7"/>
    </linearGradient>
    <linearGradient id="linear-gradient-2" x1="0.007" y1="0.503" x2="1" y2="0.503" xlink:href="#linear-gradient"/>
  </defs>
  <path id="Path_7620" data-name="Path 7620" d="M19.875,2H10.361a.373.373,0,0,0-.277.119L6.119,6.083A.373.373,0,0,0,6,6.361V22.218A1.982,1.982,0,0,0,7.982,24.2H19.875a1.982,1.982,0,0,0,1.982-1.982V3.982A1.982,1.982,0,0,0,19.875,2Z" transform="translate(-5.965 -1.967)" fill="url(#linear-gradient)"/>
  <path id="Path_7621" data-name="Path 7621" d="M10.5,1.991a.373.373,0,0,0-.428.087L6.11,6.043a.373.373,0,0,0-.119.46.4.4,0,0,0,.4.246H8.766a1.982,1.982,0,0,0,1.982-1.982V2.388a.4.4,0,0,0-.246-.4Z" transform="translate(-5.956 -1.958)" fill="url(#linear-gradient-2)"/>
  <path id="Path_7623" data-name="Path 7623" d="M15.189,11.793h1.586a.4.4,0,1,0,0-.793H15.189A1.189,1.189,0,0,0,14,12.189v1.982a1.189,1.189,0,0,0,1.189,1.189h.793a.4.4,0,0,1,.4.4v1.982a.4.4,0,0,1-.4.4H14.4a.4.4,0,1,0,0,.793h1.586a1.189,1.189,0,0,0,1.189-1.189V15.757a1.189,1.189,0,0,0-1.189-1.189h-.793a.4.4,0,0,1-.4-.4V12.189A.4.4,0,0,1,15.189,11.793Z" transform="translate(-7.622 -3.831)" fill="#577590"/>
  <path id="Path_7624" data-name="Path 7624" d="M10.586,11.793a.793.793,0,0,1,.793.793.4.4,0,0,0,.793,0,1.586,1.586,0,0,0-3.171,0v4.757a1.586,1.586,0,0,0,3.171,0,.4.4,0,0,0-.793,0,.793.793,0,0,1-1.586,0V12.586A.793.793,0,0,1,10.586,11.793Z" transform="translate(-6.586 -3.831)" fill="#577590"/>
  <path id="Path_7630" data-name="Path 7630" d="M16.843,11a.381.381,0,0,0-.452.325L15.6,16.08l-.793-4.757A.381.381,0,0,0,14.354,11a.388.388,0,0,0-.325.452l1.189,7.136a.4.4,0,0,0,.793,0L17.2,11.45A.388.388,0,0,0,16.843,11Z" transform="translate(-3.28 -3.829)" fill="#577590"/>
</svg>
