<svg xmlns="http://www.w3.org/2000/svg" width="53.172" height="61.215" viewBox="0 0 53.172 61.215">
  <g id="Group_1478" data-name="Group 1478" transform="translate(0 0)">
    <path id="Path_7560" data-name="Path 7560" d="M3323.991-719.621a18.568,18.568,0,0,1-2.99,10.506.641.641,0,0,0,.12.982q4.8,4.763,9.573,9.562a3.375,3.375,0,0,1,.092,4.846,3.389,3.389,0,0,1-4.882-.064q-4.812-4.79-9.6-9.607a.586.586,0,0,0-.9-.1,18.63,18.63,0,0,1-27.281-8.334,18.732,18.732,0,0,1,12.684-25.488,18.719,18.719,0,0,1,22.6,13.481,16,16,0,0,1,.4,1.99C3323.914-720.963,3323.955-720.071,3323.991-719.621Zm-4.936.484a13.729,13.729,0,0,0-13.664-13.769,13.7,13.7,0,0,0-13.815,13.654,13.734,13.734,0,0,0,13.7,13.833A13.756,13.756,0,0,0,3319.055-719.137Z" transform="translate(-3286.617 753.935)" fill="#fff"/>
    <path id="Path_7561" data-name="Path 7561" d="M3501.573-899.984a14.437,14.437,0,0,1-2.37,7.774,1.815,1.815,0,0,0,.449.037,15.7,15.7,0,0,0,4.766-2.009,29.455,29.455,0,0,0,6.391-5.509c.064-.071.141-.13.3-.279.027.288.053.485.063.682a26.216,26.216,0,0,1-.929,7.634,28.535,28.535,0,0,1-3.644,8.724c-.153.235-.336.45-.49.685a1.7,1.7,0,0,1-1.9.956,4.5,4.5,0,0,0-3.763,1.294,2.439,2.439,0,0,0-.725,2.581c.66,2.279,2.178,3.2,4.562,2.811a13.026,13.026,0,0,0,5.012-2.27c.78-.516,1.521-1.09,2.277-1.637.113,3.332-8.97,12.366-13.179,13.033a21.2,21.2,0,0,0-6.293-14.774,20.992,20.992,0,0,0-14.792-6.24c.608-3.554,6.914-9.223,11.04-9.921-.272.306-.516.56-.739.831a6.069,6.069,0,0,0-1.627,4.138,2.56,2.56,0,0,0,2.425,2.526c2.173.178,3.266-1.335,3.433-3.307a7.093,7.093,0,0,0-.2-1.756c-.042-.245-.034-.358.234-.419a19.149,19.149,0,0,0,9.446-5.409A2.688,2.688,0,0,1,3501.573-899.984Z" transform="translate(-3458.408 899.984)" fill="#fff"/>
    <path id="Path_7562" data-name="Path 7562" d="M3393.99-609.483a8.228,8.228,0,0,1-1.334-.536c-2.235-1.4-4.451-2.835-6.671-4.261a1.584,1.584,0,0,1-.577-2.225,1.652,1.652,0,0,1,2.387-.4c1.91,1.238,3.886,2.382,5.739,3.7a1.633,1.633,0,0,0,2.272-.131c2.036-1.491,4.148-2.876,6.211-4.332.883-.623,1.438-.341,1.821.145a1.207,1.207,0,0,1-.417,1.826c-2.054,1.439-4.124,2.855-6.185,4.283-.61.423-1.193.889-1.823,1.278A12.777,12.777,0,0,1,3393.99-609.483Z" transform="translate(-3375.388 645.988)" fill="#fff"/>
  </g>
</svg>
