<svg id="iconfinder_Doc_6783477" xmlns="http://www.w3.org/2000/svg" xmlns:xlink="http://www.w3.org/1999/xlink" width="15.892" height="22.233" viewBox="0 0 15.892 22.233">
  <defs>
    <linearGradient id="linear-gradient" x1="0.033" y1="0.166" x2="1.063" y2="0.903" gradientUnits="objectBoundingBox">
      <stop offset="0" stop-color="#00a6fb"/>
      <stop offset="1" stop-color="#0094ce"/>
    </linearGradient>
    <linearGradient id="linear-gradient-2" x1="0.007" y1="0.503" x2="1" y2="0.503" xlink:href="#linear-gradient"/>
  </defs>
  <path id="Path_7615" data-name="Path 7615" d="M19.875,2H10.361a.373.373,0,0,0-.277.119L6.119,6.083A.373.373,0,0,0,6,6.361V22.218A1.982,1.982,0,0,0,7.982,24.2H19.875a1.982,1.982,0,0,0,1.982-1.982V3.982A1.982,1.982,0,0,0,19.875,2Z" transform="translate(-5.965 -1.967)" fill="url(#linear-gradient)"/>
  <path id="Path_7616" data-name="Path 7616" d="M10.5,1.991a.373.373,0,0,0-.428.087L6.11,6.043a.373.373,0,0,0-.119.46.4.4,0,0,0,.4.246H8.766a1.982,1.982,0,0,0,1.982-1.982V2.388a.4.4,0,0,0-.246-.4Z" transform="translate(-5.956 -1.958)" fill="url(#linear-gradient-2)"/>
  <path id="Path_7617" data-name="Path 7617" d="M15.586,18.929A1.586,1.586,0,0,1,14,17.343V12.586a1.586,1.586,0,0,1,3.171,0v4.757A1.586,1.586,0,0,1,15.586,18.929Zm0-7.136a.793.793,0,0,0-.793.793v4.757a.793.793,0,0,0,1.586,0V12.586A.793.793,0,0,0,15.586,11.793Z" transform="translate(-7.622 -3.831)" fill="#f8edeb"/>
  <path id="Path_7618" data-name="Path 7618" d="M9.4,18.929a.4.4,0,0,1-.4-.4V11.4a.4.4,0,0,1,.4-.4,2.775,2.775,0,0,1,2.775,2.775v2.379A2.775,2.775,0,0,1,9.4,18.929Zm.4-7.1v6.3a1.982,1.982,0,0,0,1.586-1.942V13.815a1.982,1.982,0,0,0-1.586-1.982Z" transform="translate(-6.586 -3.831)" fill="#f8edeb"/>
  <path id="Path_7619" data-name="Path 7619" d="M20.586,18.929A1.586,1.586,0,0,1,19,17.343V12.586a1.586,1.586,0,0,1,3.171,0,.4.4,0,0,1-.793,0,.793.793,0,0,0-1.586,0v4.757a.793.793,0,0,0,1.586,0,.4.4,0,0,1,.793,0A1.586,1.586,0,0,1,20.586,18.929Z" transform="translate(-8.658 -3.831)" fill="#f8edeb"/>
</svg>
