<svg xmlns="http://www.w3.org/2000/svg" width="227" height="117.295" viewBox="0 0 227 117.295">
  <g id="Group_1339" data-name="Group 1339" transform="translate(-524.627 -23.15)" opacity="0.5">
    <g id="Group_1114" data-name="Group 1114" transform="translate(524.627 109.839)">
      <path id="Path_7236" data-name="Path 7236" d="M669.135,214.746c-16.218,0-29.046-7.6-41.451-14.956-12.313-7.3-25.043-14.843-41.04-14.843s-28.728,7.545-41.04,14.842c-6.6,3.911-13.42,7.955-20.682,10.809l-.3-.752c7.2-2.83,13.995-6.857,20.566-10.752,12.4-7.352,25.233-14.956,41.451-14.956s29.046,7.6,41.451,14.956c12.312,7.3,25.043,14.844,41.04,14.844s28.728-7.546,41.04-14.844c12.405-7.352,25.233-14.956,41.452-14.956v.808c-16,0-28.728,7.545-41.04,14.843C698.182,207.142,685.353,214.746,669.135,214.746Z" transform="translate(-524.627 -184.139)" fill="#6C61B5"/>
    </g>
    <g id="Group_1115" data-name="Group 1115" transform="translate(524.627 104.42)">
      <path id="Path_7237" data-name="Path 7237" d="M669.135,204.683c-16.218,0-29.046-7.6-41.451-14.956-12.313-7.3-25.043-14.844-41.04-14.844s-28.728,7.547-41.04,14.844c-6.6,3.91-13.42,7.954-20.682,10.808l-.3-.752c7.2-2.83,13.995-6.857,20.565-10.752,12.405-7.352,25.233-14.956,41.452-14.956s29.046,7.6,41.451,14.957c12.312,7.3,25.043,14.843,41.04,14.843s28.728-7.546,41.04-14.843c12.405-7.353,25.233-14.957,41.452-14.957v.808c-16,0-28.728,7.547-41.04,14.844C698.182,197.081,685.353,204.683,669.135,204.683Z" transform="translate(-524.627 -174.076)" fill="#6C61B5"/>
    </g>
    <g id="Group_1116" data-name="Group 1116" transform="translate(524.627 99.003)">
      <path id="Path_7238" data-name="Path 7238" d="M669.135,194.623c-16.218,0-29.046-7.6-41.451-14.956-12.313-7.3-25.043-14.843-41.04-14.843s-28.728,7.545-41.04,14.843c-6.6,3.91-13.42,7.954-20.682,10.808l-.3-.752c7.2-2.831,13.995-6.857,20.565-10.752,12.405-7.353,25.233-14.956,41.452-14.956s29.046,7.6,41.451,14.956c12.312,7.3,25.043,14.844,41.04,14.844s28.728-7.546,41.04-14.844c12.405-7.353,25.233-14.956,41.452-14.956v.808c-16,0-28.728,7.545-41.04,14.843C698.182,187.019,685.353,194.623,669.135,194.623Z" transform="translate(-524.627 -164.016)" fill="#6C61B5"/>
    </g>
    <g id="Group_1117" data-name="Group 1117" transform="translate(524.627 93.584)">
      <path id="Path_7239" data-name="Path 7239" d="M669.135,184.56c-16.218,0-29.046-7.6-41.451-14.957-12.313-7.3-25.043-14.843-41.04-14.843s-28.728,7.546-41.04,14.843c-6.6,3.91-13.42,7.954-20.682,10.809l-.3-.752c7.2-2.83,13.995-6.857,20.565-10.752,12.406-7.352,25.234-14.955,41.452-14.955s29.046,7.6,41.451,14.957c12.312,7.3,25.043,14.843,41.04,14.843s28.728-7.546,41.04-14.843c12.405-7.354,25.233-14.957,41.452-14.957v.808c-16,0-28.728,7.546-41.04,14.843C698.182,176.957,685.353,184.56,669.135,184.56Z" transform="translate(-524.627 -153.953)" fill="#6C61B5"/>
    </g>
    <g id="Group_1118" data-name="Group 1118" transform="translate(524.627 88.166)">
      <path id="Path_7240" data-name="Path 7240" d="M669.135,174.5c-16.218,0-29.046-7.6-41.451-14.957-12.313-7.3-25.043-14.843-41.04-14.843s-28.728,7.546-41.04,14.843c-6.6,3.911-13.42,7.954-20.682,10.81l-.3-.752c7.2-2.831,13.995-6.858,20.565-10.752,12.405-7.353,25.233-14.956,41.452-14.956s29.046,7.6,41.451,14.956c12.312,7.3,25.043,14.843,41.04,14.843s28.728-7.546,41.04-14.843c12.405-7.353,25.233-14.956,41.452-14.956v.808c-16,0-28.728,7.546-41.04,14.843C698.182,166.895,685.353,174.5,669.135,174.5Z" transform="translate(-524.627 -143.891)" fill="#6C61B5"/>
    </g>
    <g id="Group_1119" data-name="Group 1119" transform="translate(524.627 82.749)">
      <path id="Path_7241" data-name="Path 7241" d="M669.135,164.437c-16.218,0-29.046-7.6-41.451-14.956-12.313-7.3-25.043-14.843-41.04-14.843s-28.728,7.545-41.04,14.843c-6.6,3.91-13.42,7.954-20.682,10.808l-.3-.752c7.2-2.83,13.995-6.857,20.565-10.751,12.405-7.353,25.233-14.955,41.452-14.955s29.046,7.6,41.451,14.955c12.312,7.3,25.043,14.843,41.04,14.843s28.728-7.546,41.04-14.843c12.405-7.353,25.233-14.955,41.452-14.955v.808c-16,0-28.728,7.546-41.04,14.843C698.182,156.834,685.353,164.437,669.135,164.437Z" transform="translate(-524.627 -133.831)" fill="#6C61B5"/>
    </g>
    <g id="Group_1120" data-name="Group 1120" transform="translate(524.627 77.33)">
      <path id="Path_7242" data-name="Path 7242" d="M669.135,154.374c-16.218,0-29.046-7.6-41.451-14.956-12.313-7.3-25.043-14.843-41.04-14.843s-28.728,7.546-41.04,14.843c-6.6,3.91-13.42,7.954-20.682,10.808l-.3-.751c7.2-2.831,13.995-6.859,20.565-10.753,12.405-7.352,25.233-14.955,41.452-14.955s29.046,7.6,41.451,14.956c12.312,7.3,25.043,14.843,41.04,14.843s28.728-7.546,41.04-14.843c12.405-7.353,25.233-14.956,41.452-14.956v.808c-16,0-28.728,7.546-41.04,14.843C698.182,146.772,685.353,154.374,669.135,154.374Z" transform="translate(-524.627 -123.768)" fill="#6C61B5"/>
    </g>
    <g id="Group_1121" data-name="Group 1121" transform="translate(524.627 71.912)">
      <path id="Path_7243" data-name="Path 7243" d="M669.135,144.312c-16.218,0-29.046-7.6-41.451-14.956-12.313-7.3-25.043-14.843-41.04-14.843s-28.728,7.546-41.04,14.843c-6.6,3.91-13.42,7.954-20.682,10.809l-.3-.752c7.2-2.83,13.995-6.857,20.565-10.751,12.406-7.353,25.234-14.956,41.452-14.956s29.046,7.6,41.451,14.956c12.312,7.3,25.043,14.842,41.04,14.842s28.728-7.545,41.04-14.842c12.405-7.353,25.233-14.956,41.452-14.956v.808c-16,0-28.728,7.546-41.04,14.843C698.182,136.71,685.353,144.312,669.135,144.312Z" transform="translate(-524.627 -113.706)" fill="#6C61B5"/>
    </g>
    <g id="Group_1122" data-name="Group 1122" transform="translate(524.627 66.495)">
      <path id="Path_7244" data-name="Path 7244" d="M669.135,134.251c-16.218,0-29.046-7.6-41.451-14.956-12.313-7.3-25.043-14.843-41.04-14.843S557.917,112,545.605,119.295c-6.6,3.911-13.421,7.954-20.683,10.809l-.3-.752c7.2-2.83,14-6.857,20.566-10.752,12.405-7.352,25.233-14.955,41.451-14.955s29.046,7.6,41.451,14.956c12.312,7.3,25.043,14.843,41.04,14.843s28.728-7.546,41.04-14.843c12.405-7.353,25.233-14.956,41.452-14.956v.808c-16,0-28.728,7.546-41.04,14.843C698.182,126.649,685.353,134.251,669.135,134.251Z" transform="translate(-524.627 -103.645)" fill="#6C61B5"/>
    </g>
    <g id="Group_1123" data-name="Group 1123" transform="translate(524.627 61.076)">
      <path id="Path_7245" data-name="Path 7245" d="M669.135,124.189c-16.218,0-29.046-7.6-41.451-14.956-12.313-7.3-25.043-14.843-41.04-14.843s-28.728,7.546-41.04,14.843c-6.6,3.91-13.42,7.954-20.682,10.808l-.3-.751c7.2-2.831,13.995-6.858,20.565-10.752,12.406-7.353,25.234-14.956,41.452-14.956s29.046,7.6,41.451,14.956c12.312,7.3,25.043,14.843,41.04,14.843s28.728-7.546,41.04-14.843c12.405-7.353,25.233-14.956,41.452-14.956v.808c-16,0-28.728,7.546-41.04,14.843C698.182,116.587,685.353,124.189,669.135,124.189Z" transform="translate(-524.627 -93.583)" fill="#6C61B5"/>
    </g>
    <g id="Group_1124" data-name="Group 1124" transform="translate(524.627 55.658)">
      <path id="Path_7246" data-name="Path 7246" d="M669.135,114.127c-16.218,0-29.046-7.6-41.451-14.956-12.313-7.3-25.043-14.843-41.04-14.843s-28.728,7.546-41.04,14.843c-6.6,3.911-13.42,7.955-20.682,10.809l-.3-.752c7.2-2.831,13.995-6.857,20.565-10.752,12.405-7.352,25.233-14.956,41.452-14.956s29.046,7.6,41.451,14.956c12.312,7.3,25.043,14.843,41.04,14.843s28.728-7.546,41.04-14.843c12.405-7.352,25.233-14.956,41.452-14.956v.808c-16,0-28.728,7.546-41.04,14.843C698.182,106.525,685.353,114.127,669.135,114.127Z" transform="translate(-524.627 -83.521)" fill="#6C61B5"/>
    </g>
    <g id="Group_1125" data-name="Group 1125" transform="translate(524.627 50.24)">
      <path id="Path_7247" data-name="Path 7247" d="M669.135,104.066c-16.218,0-29.046-7.6-41.451-14.956-12.313-7.3-25.043-14.843-41.04-14.843S557.917,81.812,545.6,89.11c-6.6,3.91-13.42,7.954-20.682,10.808l-.3-.752c7.2-2.83,13.995-6.857,20.566-10.752,12.4-7.352,25.233-14.956,41.451-14.956s29.046,7.6,41.451,14.956c12.312,7.3,25.043,14.843,41.04,14.843s28.728-7.546,41.04-14.843c12.405-7.353,25.233-14.956,41.452-14.956v.808c-16,0-28.728,7.546-41.04,14.843C698.182,96.463,685.353,104.066,669.135,104.066Z" transform="translate(-524.627 -73.459)" fill="#6C61B5"/>
    </g>
    <g id="Group_1126" data-name="Group 1126" transform="translate(524.627 44.822)">
      <path id="Path_7248" data-name="Path 7248" d="M669.135,94c-16.218,0-29.046-7.6-41.451-14.956-12.313-7.3-25.043-14.843-41.04-14.843S557.917,71.75,545.6,79.047c-6.6,3.911-13.42,7.955-20.682,10.809l-.3-.752c7.2-2.831,13.995-6.858,20.565-10.752C557.6,71,570.426,63.4,586.644,63.4S615.69,71,628.1,78.353c12.312,7.3,25.043,14.843,41.04,14.843s28.728-7.546,41.04-14.843C722.581,71,735.408,63.4,751.627,63.4V64.2c-16,0-28.728,7.546-41.04,14.843C698.182,86.4,685.353,94,669.135,94Z" transform="translate(-524.627 -63.397)" fill="#6C61B5"/>
    </g>
    <g id="Group_1127" data-name="Group 1127" transform="translate(524.627 39.404)">
      <path id="Path_7249" data-name="Path 7249" d="M669.135,83.942c-16.218,0-29.046-7.6-41.451-14.956-12.313-7.3-25.043-14.843-41.04-14.843s-28.728,7.546-41.04,14.843c-6.6,3.911-13.42,7.954-20.682,10.809l-.3-.752c7.2-2.83,13.995-6.857,20.565-10.752,12.406-7.353,25.234-14.956,41.452-14.956s29.046,7.6,41.451,14.956c12.312,7.3,25.043,14.843,41.04,14.843s28.728-7.545,41.04-14.843c12.405-7.353,25.233-14.956,41.452-14.956v.808c-16,0-28.728,7.546-41.04,14.843C698.182,76.339,685.353,83.942,669.135,83.942Z" transform="translate(-524.627 -53.335)" fill="#6C61B5"/>
    </g>
    <g id="Group_1128" data-name="Group 1128" transform="translate(524.627 33.986)">
      <path id="Path_7250" data-name="Path 7250" d="M669.135,73.881c-16.218,0-29.046-7.6-41.451-14.956-12.313-7.3-25.043-14.843-41.04-14.843s-28.728,7.546-41.04,14.843c-6.6,3.911-13.42,7.954-20.682,10.809l-.3-.752c7.2-2.83,13.995-6.857,20.565-10.751,12.405-7.352,25.233-14.956,41.452-14.956s29.046,7.6,41.451,14.956c12.312,7.3,25.043,14.844,41.04,14.844s28.728-7.546,41.04-14.844c12.405-7.352,25.233-14.956,41.452-14.956v.808c-16,0-28.728,7.546-41.04,14.843C698.182,66.278,685.353,73.881,669.135,73.881Z" transform="translate(-524.627 -43.274)" fill="#6C61B5"/>
    </g>
    <g id="Group_1129" data-name="Group 1129" transform="translate(524.627 28.568)">
      <path id="Path_7251" data-name="Path 7251" d="M669.135,63.819c-16.218,0-29.046-7.6-41.451-14.956-12.313-7.3-25.043-14.843-41.04-14.843s-28.728,7.546-41.04,14.843c-6.6,3.911-13.42,7.954-20.682,10.809l-.3-.752c7.2-2.83,13.995-6.857,20.566-10.752,12.4-7.352,25.233-14.956,41.451-14.956s29.046,7.6,41.451,14.956c12.312,7.3,25.043,14.843,41.04,14.843s28.728-7.546,41.04-14.843c12.405-7.353,25.233-14.956,41.452-14.956v.808c-16,0-28.728,7.546-41.04,14.843C698.182,56.216,685.353,63.819,669.135,63.819Z" transform="translate(-524.627 -33.212)" fill="#6C61B5"/>
    </g>
    <g id="Group_1130" data-name="Group 1130" transform="translate(524.627 23.15)">
      <path id="Path_7252" data-name="Path 7252" d="M669.135,53.757c-16.218,0-29.046-7.6-41.451-14.956-12.313-7.3-25.043-14.843-41.04-14.843S557.917,31.5,545.6,38.8c-6.6,3.91-13.42,7.954-20.682,10.809l-.3-.752c7.2-2.831,13.995-6.858,20.565-10.752C557.6,30.753,570.426,23.15,586.644,23.15s29.046,7.6,41.451,14.956c12.312,7.3,25.043,14.843,41.04,14.843s28.728-7.546,41.04-14.843c12.405-7.353,25.233-14.956,41.452-14.956v.808c-16,0-28.728,7.546-41.04,14.843C698.182,46.154,685.353,53.757,669.135,53.757Z" transform="translate(-524.627 -23.15)" fill="#6C61B5"/>
    </g>
  </g>
</svg>
