<svg xmlns="http://www.w3.org/2000/svg" width="48.992" height="48.991" viewBox="0 0 48.992 48.991">
  <g id="Group_1266" data-name="Group 1266" transform="translate(0.25 0.25)">
    <path id="Path_7476" data-name="Path 7476" d="M1545.021,214.653a5.623,5.623,0,0,1,.565.285c.641.425,1.28.852,1.907,1.3a.489.489,0,0,0,.555.043q1.25-.537,2.525-1.018a.5.5,0,0,0,.392-.444c.1-.7.224-1.391.339-2.086s.306-.858.986-.859q2.269,0,4.538,0c.681,0,.874.174.984.859.118.734.243,1.466.352,2.2a.448.448,0,0,0,.347.389q1.251.483,2.48,1.025a.5.5,0,0,0,.56-.039c.631-.44,1.269-.868,1.907-1.3a.822.822,0,0,1,1.227.12q1.62,1.616,3.234,3.237a.835.835,0,0,1,.089,1.288c-.446.61-.905,1.212-1.334,1.834a.591.591,0,0,0-.05.473q.506,1.326,1.067,2.631a.6.6,0,0,0,.371.3c.775.171,1.558.309,2.337.462.516.1.712.326.713.835q.005,2.384,0,4.769a.741.741,0,0,1-.732.856c-.784.125-1.57.244-2.35.393a.541.541,0,0,0-.321.293c-.376.88-.74,1.765-1.082,2.658a.609.609,0,0,0,.058.474c.413.648.855,1.278,1.284,1.916a.826.826,0,0,1-.13,1.255q-1.6,1.605-3.209,3.208a.9.9,0,0,1-1.363.1c-.6-.437-1.2-.874-1.8-1.322a.48.48,0,0,0-.556-.054c-.844.366-1.7.714-2.558,1.036a.472.472,0,0,0-.355.423c-.135.782-.291,1.561-.447,2.34a.709.709,0,0,1-.787.678q-2.423.014-4.846,0a.743.743,0,0,1-.822-.735c-.127-.784-.245-1.57-.393-2.35a.54.54,0,0,0-.283-.33c-.855-.373-1.716-.733-2.585-1.071a.607.607,0,0,0-.477.052c-.658.421-1.3.873-1.945,1.309a.808.808,0,0,1-1.2-.121q-1.618-1.645-3.229-3.3a.855.855,0,0,1-.082-1.349c.425-.579.841-1.163,1.277-1.734a.508.508,0,0,0,.074-.589c-.371-.857-.7-1.731-1.069-2.59a.557.557,0,0,0-.338-.289c-.726-.156-1.458-.283-2.189-.415s-.9-.331-.9-1.049q0-2.23,0-4.461c0-.722.182-.91.911-1.021.709-.108,1.415-.241,2.124-.343a.492.492,0,0,0,.438-.347c.358-.862.749-1.711,1.1-2.574a.555.555,0,0,0-.057-.44c-.423-.657-.872-1.3-1.307-1.947a.811.811,0,0,1,.107-1.2c1.084-1.091,2.167-2.183,3.267-3.259A3.419,3.419,0,0,1,1545.021,214.653Zm19.085,1.838c-.67.463-1.329.9-1.971,1.367a.946.946,0,0,1-1.141.055,12.673,12.673,0,0,0-3.4-1.407.821.821,0,0,1-.665-.709c-.12-.72-.255-1.438-.368-2.16-.04-.256-.13-.371-.416-.366-1.013.018-2.026.013-3.039,0-.248,0-.362.068-.4.334-.1.71-.24,1.415-.362,2.122a.7.7,0,0,1-.734.687c-.1.012-.2.029-.3.049a10.4,10.4,0,0,0-3.155,1.281.977.977,0,0,1-1.2-.06c-.542-.409-1.117-.774-1.671-1.167-.182-.129-.31-.158-.49.028-.714.736-1.441,1.46-2.175,2.176a.313.313,0,0,0-.042.488c.419.583.811,1.184,1.227,1.769a.879.879,0,0,1,.044,1.04,12.956,12.956,0,0,0-1.407,3.355.842.842,0,0,1-.744.676c-.721.116-1.438.255-2.16.367-.239.037-.358.113-.355.385.014,1.026.012,2.052,0,3.077,0,.255.077.356.338.394.723.1,1.44.247,2.16.365a.811.811,0,0,1,.732.685,10.762,10.762,0,0,0,1.354,3.413.913.913,0,0,1-.047,1.076c-.416.585-.811,1.185-1.23,1.767a.294.294,0,0,0,.039.455q1.1,1.105,2.17,2.235a.326.326,0,0,0,.514.054c.571-.413,1.162-.8,1.736-1.207a.9.9,0,0,1,1.073-.046,12.048,12.048,0,0,0,3.284,1.376,1.034,1.034,0,0,1,.86.985c.1.759.252,1.512.383,2.274h3.716c.04-.193.083-.378.115-.565.106-.619.213-1.237.311-1.857a.866.866,0,0,1,.68-.788,13.319,13.319,0,0,0,3.49-1.379.762.762,0,0,1,.895.076c.633.459,1.287.889,1.917,1.351.228.167.363.125.55-.062q1.06-1.061,2.152-2.09c.207-.194.243-.338.066-.58-.425-.578-.818-1.179-1.229-1.768a.794.794,0,0,1-.06-.9,15.932,15.932,0,0,0,1.492-3.572.83.83,0,0,1,.738-.634c.708-.115,1.412-.26,2.122-.359.279-.039.36-.142.356-.415-.015-1.013-.017-2.026,0-3.039.005-.287-.11-.372-.365-.416-.694-.122-1.383-.271-2.075-.4a.873.873,0,0,1-.791-.725,10.33,10.33,0,0,0-1.322-3.342.968.968,0,0,1,.051-1.174c.407-.559.8-1.132,1.175-1.711.064-.1.089-.321.027-.385C1565.761,218.139,1564.942,217.329,1564.106,216.491Z" transform="translate(-1530.234 -211.869)" fill="#7288a1" stroke="#7288a1" stroke-width="0.5"/>
    <path id="Path_7477" data-name="Path 7477" d="M1867.955,495.111c.345,0,.639-.008.932,0a.9.9,0,0,1,.914.9q.02,2.461,0,4.923a.89.89,0,0,1-.962.889c-.962.009-1.923,0-2.885,0q-3.962,0-7.924,0c-.825,0-1.13-.308-1.13-1.143q0-2.25,0-4.5c0-.751.325-1.067,1.082-1.073.588-.005.556.083.557-.56,0-1.282.012-2.564,0-3.846a3.247,3.247,0,0,1,.753-2.161c1.254-1.558,2.532-3.1,3.7-4.718a2.485,2.485,0,0,1,4.4.324,1.3,1.3,0,0,0,.118.167c.445-.543.994-.919.967-1.771-.068-2.216-.037-4.436-.015-6.654a2.326,2.326,0,0,1,1.41-2.168,2.283,2.283,0,0,1,2.5.252,2.178,2.178,0,0,1,.925,1.815q0,4.75,0,9.5a2.07,2.07,0,0,1-.429,1.284c-1.451,1.956-2.855,3.949-4.35,5.869A3.69,3.69,0,0,0,1867.955,495.111Zm-1.434-.02c0-.294.015-.55,0-.8a4,4,0,0,1,.9-2.779c1.371-1.823,2.686-3.687,4.038-5.524a1.743,1.743,0,0,0,.378-1.139c-.034-2.781-.017-5.562-.017-8.344,0-.205.011-.411-.006-.615a.991.991,0,0,0-.816-.9.934.934,0,0,0-1.027.569,1.859,1.859,0,0,0-.084.639c-.005,2.384,0,4.768-.015,7.152a1.361,1.361,0,0,1-.253.809c-1.1,1.317-2.235,2.607-3.364,3.9a.664.664,0,0,1-1.01.135.721.721,0,0,1-.124-1.082c.219-.284.475-.541.678-.835a1.991,1.991,0,0,0,.317-.685,1.191,1.191,0,0,0-.678-1.3c-.359-.135-.742-.149-1.183.428-1.221,1.6-2.472,3.175-3.726,4.748a1.885,1.885,0,0,0-.431,1.238c.006,1.333.011,2.666,0,4,0,.318.087.413.409.41,1.871-.014,3.743-.007,5.614-.008C1866.229,495.111,1866.343,495.1,1866.521,495.091Zm-8.062,1.545c0,1.091.017,2.141-.009,3.19-.009.365.11.446.454.445,3.026-.012,6.052-.007,9.078-.008.122,0,.245-.015.375-.024v-3.6Z" transform="translate(-1824.81 -453.338)" fill="#7288a1" stroke="#7288a1" stroke-width="0.5"/>
    <path id="Path_7478" data-name="Path 7478" d="M1445.714,484.559a2.723,2.723,0,0,1,2.021-1.647,2.164,2.164,0,0,1,2.17.779c1.414,1.758,2.8,3.538,4.186,5.319a2.879,2.879,0,0,1,.588,1.833c-.006,1.333.007,2.667-.008,4,0,.318.09.449.412.408a1.756,1.756,0,0,1,.422.007.8.8,0,0,1,.744.83q0,2.442-.006,4.885a.911.911,0,0,1-1.016.991q-5.443,0-10.886,0a.9.9,0,0,1-1-1q-.01-2.346,0-4.693a.91.91,0,0,1,1.024-1.018c.919-.012.906-.012.922-.929a2.61,2.61,0,0,0-.567-1.636c-1.5-2.034-2.983-4.075-4.482-6.107a2.075,2.075,0,0,1-.413-1.288c.006-3.039,0-6.078,0-9.116a2.461,2.461,0,1,1,4.918-.028q.015,3.327,0,6.654a1.339,1.339,0,0,0,.371,1.039C1445.32,484.046,1445.49,484.287,1445.714,484.559Zm-4.32-3.809h0c0,1.474.008,2.948-.006,4.421a1.438,1.438,0,0,0,.307.918c1.349,1.823,2.661,3.674,4.034,5.478a4.362,4.362,0,0,1,1.034,3.161c-.028.282.072.381.363.379q2.864-.016,5.728,0c.315,0,.423-.093.419-.415-.015-1.269-.02-2.538,0-3.806a2.049,2.049,0,0,0-.482-1.378c-.579-.718-1.142-1.449-1.712-2.174-.72-.917-1.434-1.839-2.164-2.748a.941.941,0,0,0-1.589.044,1.25,1.25,0,0,0,.025,1.567c.25.324.522.632.782.949a.672.672,0,0,1,.008.884c-.314.45-.83.422-1.261-.072-1.06-1.217-2.106-2.448-3.18-3.653a1.338,1.338,0,0,1-.363-.967c.009-2.243,0-4.485,0-6.728a5.037,5.037,0,0,0-.029-.69.945.945,0,0,0-.782-.792.932.932,0,0,0-1.017.525,1.7,1.7,0,0,0-.112.635C1441.389,477.776,1441.394,479.263,1441.394,480.749Zm13.431,16.03h-9.882V500.4h8.566c.346,0,.693.016,1.038-.01.1-.007.265-.135.266-.21C1454.83,499.057,1454.825,497.931,1454.825,496.78Z" transform="translate(-1439.826 -453.477)" fill="#7288a1" stroke="#7288a1" stroke-width="0.5"/>
    <path id="Path_7479" data-name="Path 7479" d="M1632.354,315.2c.936,0,1.872-.015,2.806.008a.466.466,0,0,0,.539-.39c.566-1.768,1.154-3.529,1.73-5.293a.967.967,0,0,1,.642-.707.761.761,0,0,1,.959.6q.7,2.1,1.38,4.2c.135.414.282.824.4,1.243a.422.422,0,0,0,.486.356c1.909-.013,3.819-.008,5.728-.006.51,0,.8.217.869.633a.789.789,0,0,1-.382.815c-1.515,1.1-3.017,2.212-4.536,3.3a.471.471,0,0,0-.2.636c.591,1.746,1.16,3.5,1.741,5.249a.863.863,0,0,1-.135,1,.744.744,0,0,1-1.071.013c-1.49-1.088-2.987-2.167-4.461-3.276a.617.617,0,0,0-.883-.024c-1.537,1.11-3.1,2.184-4.654,3.27-.443.31-.726.333-1.049.087s-.377-.514-.206-1.036c.583-1.776,1.16-3.554,1.756-5.325a.423.423,0,0,0-.187-.571c-1.548-1.116-3.083-2.252-4.63-3.371a.714.714,0,0,1-.357-.848.787.787,0,0,1,.8-.554Q1630.893,315.2,1632.354,315.2Zm-.334,1.56-.024.1c.076.063.15.13.229.189q1.52,1.112,3.043,2.221a.812.812,0,0,1,.373,1.146c-.315.988-.635,1.975-.951,2.962-.088.275-.17.551-.254.827a.706.706,0,0,0,.38-.157l3.015-2.193a.775.775,0,0,1,1.14,0q1.355.98,2.708,1.962c.182.132.367.261.633.45-.059-.225-.085-.346-.122-.464-.373-1.171-.75-2.341-1.121-3.513a.777.777,0,0,1,.345-1.059c.993-.725,1.992-1.444,2.987-2.167.093-.067.177-.147.265-.22a.817.817,0,0,0-.414-.083c-1.256,0-2.512,0-3.768,0a.748.748,0,0,1-.848-.617c-.159-.487-.313-.975-.471-1.462q-.4-1.225-.795-2.45a1.279,1.279,0,0,0-.259.5c-.352,1.1-.7,2.2-1.054,3.292a.9.9,0,0,1-1.014.742q-1.826,0-3.653,0Z" transform="translate(-1614.074 -301.326)" fill="#7288a1" stroke="#7288a1" stroke-width="0.5"/>
  </g>
</svg>
