<svg xmlns="http://www.w3.org/2000/svg" width="54.639" height="51" viewBox="0 0 54.639 51">
  <path id="Path_7272" data-name="Path 7272" d="M2372.615,197.551h4.271a2.766,2.766,0,0,1,3.017,2.993q0,7.028,0,14.055v.752c2.145-.844,4.323-.414,6.466-.486,1.743-.058,3.49-.016,5.235-.01.681,0,1.043.338,1.045.992q.012,4.012,0,8.023a.9.9,0,0,1-.987.992q-4.922.011-9.844,0a3.838,3.838,0,0,1-.785-.173,10.7,10.7,0,0,1-5.8,3.517,11.188,11.188,0,0,1-2.3.293c-3.11.033-6.221.018-9.332.013a2.731,2.731,0,1,1,.031-5.458c.905,0,1.811,0,2.675,0v-1.826h-19.84a2.76,2.76,0,0,1-2.98-2.972q0-8.877,0-17.754a2.757,2.757,0,0,1,2.949-2.947q2.105,0,4.211-.009c.035,0,.07-.025.047-.016a32.016,32.016,0,0,1,.778-3.337,21.066,21.066,0,0,1,1.464-3.183,1.763,1.763,0,0,0,.189-1.538c-.341-1.018-.312-1.028-1.386-1.028H2339.27c-.969,0-1.253-.282-1.254-1.244q0-4.239,0-8.479c0-.894.3-1.2,1.183-1.2q6.031,0,12.063,0c1.055,0,1.314.254,1.32,1.292,0,.15,0,.3,0,.53h.629c2.788,0,5.576,0,8.365,0a8.139,8.139,0,0,1,8.283,8.276,7.371,7.371,0,0,0,1.088,4.277,11.264,11.264,0,0,1,1.572,5.049C2372.537,197.127,2372.577,197.312,2372.615,197.551Zm-6.373-10.9c0,2.352,0,4.646,0,6.939,0,.809.329,1.242.927,1.231.582-.011.9-.43.9-1.205q0-2.931,0-5.862a6.389,6.389,0,0,0-6.6-6.594q-4.126,0-8.252,0h-.587V186.6c1.538.028,1.56-.021,2.009,1.607.256.929.519,1.857.8,2.779a2.686,2.686,0,0,0,1.719,1.828v-4.332h1.819v4.477h1.832v-4.487h1.81v4.477h1.832v-6.306Zm-9.08,22.7h9.058v-3.584l-.844-.045v-1.811h.835v-4.5h-9.049v4.5l.844.044v1.811h-.844Zm-6.422-29.985h-10.871v7.219h10.871Zm22.774,45.5h-.657q-4.525,0-9.049,0c-.776,0-1.2.316-1.2.9s.418.925,1.178.925c3,0,6,.028,8.992-.007a9.014,9.014,0,0,0,7.146-3.508,3.494,3.494,0,0,0,.921-2.632c-.1-1.161-.022-2.337-.022-3.5a.706.706,0,0,0-.173-.022,15.274,15.274,0,0,0-7.215,3.754,1.845,1.845,0,0,1-1.1.426c-1.078.056-2.162.013-3.243.023a.915.915,0,1,0,.006,1.819c1.29.009,2.58,0,3.87,0h.556Zm-16.337-13.635v8.129h9.039v-8.129Zm-5.524-11.864c-1.758,0-3.462,0-5.166,0-.88,0-1.188.312-1.189,1.2q0,4.125,0,8.249c0,.182.016.363.024.527h6.323V205.77l-.835-.059v-1.768l.842-.043Zm26.4,10a1.683,1.683,0,0,0,.034-.217q0-4.381,0-8.761a.916.916,0,0,0-1.024-1.018c-1.4-.009-2.806,0-4.21,0h-1.1v4.539l.826.041v1.808h-.838v3.61Zm12.761,7.344h-8.129v6.308h8.129Zm-45.511-5.482c0,2.448-.007,4.833,0,7.218a.907.907,0,0,0,1.024.957c1.288.009,2.576,0,3.864,0h1.444v-8.177Zm26.437,8.3a4.294,4.294,0,0,0,.866-.45,15.7,15.7,0,0,1,5.084-3.046.538.538,0,0,0,.407-.621c-.016-1.156-.006-2.313-.006-3.47v-.708h-6.351Zm-4.7-22c.094-.588-.056-.91-.7-1.043a2.3,2.3,0,0,1-1.568-1.3.571.571,0,0,0-.6-.38c-2.341.015-4.682.008-7.152.008l-.81,2.712Zm-11.75,21.853V205.787h-1.758V219.38Zm14.569,0V205.789h-1.755v13.592ZM2355.278,203.9v-4.486h-1.755V203.9Zm12.826-4.506v4.486h1.755v-4.486Zm-14.021-6.786a11.85,11.85,0,0,0-1.45,4.911h1.709l1.013-3.542Zm15.995,1.569a10.843,10.843,0,0,0-1.145,1.83,3.7,3.7,0,0,0,.046,1.479c0,.026.129.06.2.061.518.005,1.037,0,1.679,0Z" transform="translate(-2338.016 -177.516)" fill="#7288a1" fill-rule="evenodd"/>
</svg>
