<svg id="layer1" xmlns="http://www.w3.org/2000/svg" width="18.083" height="22.233" viewBox="0 0 18.083 22.233">
  <g id="g899">
    <g id="g876">
      <path id="path890" d="M-51.252,183.976a2.3,2.3,0,0,0-2.3,2.3v17.639a2.3,2.3,0,0,0,2.3,2.3h13.488a2.3,2.3,0,0,0,2.3-2.3v-14.5a1.9,1.9,0,0,0-.148-.838,2.323,2.323,0,0,0-.455-.657l0,0-3.347-3.282-.006-.006a2.647,2.647,0,0,0-.709-.454,2.592,2.592,0,0,0-1.013-.191H-51.252Z" transform="translate(53.548 -183.976)" fill="#ff2116"/>
      <path id="rect2684" d="M-48.864,187.118h10.121a2.156,2.156,0,0,1,.7.131,1.918,1.918,0,0,1,.488.308h0l3.338,3.275a1.841,1.841,0,0,1,.3.431,1.636,1.636,0,0,1,.084.5q0,.008,0,.016V206.3a1.53,1.53,0,0,1-1.542,1.542H-48.864a1.53,1.53,0,0,1-1.542-1.542V188.661a1.53,1.53,0,0,1,1.542-1.542Z" transform="translate(51.16 -186.364)" fill="#f5f5f5"/>
      <path id="path2697" d="M-35.341,210.769c-.519-.519.043-1.232,1.567-1.99l.959-.477.374-.817c.205-.45.512-1.183.682-1.63l.308-.813-.212-.6a4.3,4.3,0,0,1-.188-2.251c.224-.541.959-.486,1.25.094a3.666,3.666,0,0,1-.065,2.309l-.221.849.194.33a11.456,11.456,0,0,0,.694.958l.516.642.643-.084c2.042-.266,2.741.186,2.741.836,0,.819-1.6.887-2.949-.059a4.088,4.088,0,0,1-.511-.424s-.843.172-1.259.284-.642.188-1.27.4c0,0-.22.32-.364.552a5.95,5.95,0,0,1-1.6,1.843A1.093,1.093,0,0,1-35.341,210.769Zm.815-.291a6.142,6.142,0,0,0,1.291-1.527l.166-.263-.754.379c-1.164.585-1.7,1.137-1.42,1.471C-35.088,210.725-34.9,210.71-34.527,210.478Zm7.561-2.122a.438.438,0,0,0-.079-.765,2.119,2.119,0,0,0-1.106-.143c-.4.027-1.046.108-1.155.133,0,0,.354.245.511.335a6.8,6.8,0,0,0,1.089.455c.366.112.578.1.739-.015Zm-3.04-1.264a7.456,7.456,0,0,1-.653-.842,4.688,4.688,0,0,1-.366-.545s-.178.573-.324.917l-.456,1.126-.132.255s.7-.23,1.06-.324c.379-.1,1.147-.25,1.147-.25Zm-.98-3.929a1.65,1.65,0,0,0-.056-.925c-.329-.36-.727-.06-.66.8a5.841,5.841,0,0,0,.19,1.084l.174.552.122-.416A10.906,10.906,0,0,0-30.986,203.163Z" transform="translate(39.856 -197.532)" fill="#ff2116"/>
      <g id="g858" transform="translate(5.397 15.642)">
        <path id="path845" d="M-31.067,249.125h.843a2.291,2.291,0,0,1,.656.077.77.77,0,0,1,.424.337,1.106,1.106,0,0,1,.172.626,1.138,1.138,0,0,1-.14.578.82.82,0,0,1-.377.349,1.834,1.834,0,0,1-.723.107H-30.5v1.329h-.564Zm.564.436v1.187h.279a.735.735,0,0,0,.516-.14.609.609,0,0,0,.145-.454.681.681,0,0,0-.095-.379.389.389,0,0,0-.209-.18,1.312,1.312,0,0,0-.357-.035Z" transform="translate(31.067 -249.125)" fill="#2c2c2c"/>
        <path id="path847" d="M-20.547,249.125h.765a1.731,1.731,0,0,1,.888.2,1.225,1.225,0,0,1,.5.586,2.11,2.11,0,0,1,.172.863,2.408,2.408,0,0,1-.155.89,1.415,1.415,0,0,1-.469.628,1.457,1.457,0,0,1-.9.239h-.808Zm.564.451v2.5h.234a.789.789,0,0,0,.713-.339,1.65,1.65,0,0,0,.222-.91q0-1.252-.935-1.252Z" transform="translate(23.072 -249.125)" fill="#2c2c2c"/>
        <path id="path849" d="M-8.593,249.125H-6.7v.451H-8.029v1.017h1.062v.451H-8.029v1.484h-.564Z" transform="translate(13.988 -249.125)" fill="#2c2c2c"/>
      </g>
    </g>
  </g>
</svg>
