<svg xmlns="http://www.w3.org/2000/svg" width="343.988" height="343.963" viewBox="0 0 343.988 343.963">
  <g id="Group_12" data-name="Group 12" transform="translate(3156.119 -1650.214)">
    <path id="Path_47" data-name="Path 47" fill="#7288a1" d="M-2848.315,1832.462h36.089c-2.283,74.259-63.562,156.273-163.229,161.476-99.047,5.172-180.735-74.206-180.664-171.7.072-98.8,79.557-167.648,160.2-172.028v35.959c-46.239,5.535-82.061,27.745-105.728,68.165-16.146,27.576-21.366,57.609-16.358,89.139a135,135,0,0,0,129.436,114.14c36.2,1.062,68.115-10.487,95.16-34.593C-2866.439,1898.983-2851.693,1868.6-2848.315,1832.462Z" transform="translate(0)"/>
    <path id="Path_48" data-name="Path 48" fill="#7288a1" d="M-2837.206,1651.476c79.535,4.742,151.21,71.111,157.738,156.423-1.02.051-2.034.143-3.049.145-9.822.012-19.648-.125-29.465.089-2.972.065-3.979-.861-4.342-3.723a125.964,125.964,0,0,0-14.949-45.724c-19.146-34.444-47.74-57.041-85.885-67.255-5.892-1.578-12-2.364-18.015-3.462-1.307-.238-2.414-.305-2.4-2.151.083-11.183.074-22.366.109-33.549A2.731,2.731,0,0,1-2837.206,1651.476Z" transform="translate(-132.663 -0.526)"/>
    <path id="Path_49" data-name="Path 49" fill="#7288a1" d="M-2848.614,1851.694a35.868,35.868,0,0,1-2.346,4.388q-21.159,30.378-42.406,60.7-14.033,20.066-28.067,40.131c-.557.8-1.1,1.605-1.707,2.363-2.758,3.443-6.711,4.1-10.026,1.679-3.488-2.543-4.241-6.558-1.693-10.25,6.789-9.835,13.664-19.613,20.514-29.406q25.48-36.428,50.977-72.844a17.636,17.636,0,0,1,2.542-3.17c2.2-1.947,4.762-2.634,7.548-1.3C-2850.421,1845.345-2848.794,1847.6-2848.614,1851.694Z" transform="translate(-91.518 -80.409)"/>
    <path id="Path_50" data-name="Path 50" fill="#7288a1" d="M-2917.335,1867.68c.05,4.947.309,9.88-2.228,14.479a18.372,18.372,0,0,1-19.733,9.112,18.141,18.141,0,0,1-14.478-16.81c-.159-4.459-.168-8.933-.023-13.393a18.185,18.185,0,0,1,18.473-17.557,18.213,18.213,0,0,1,17.98,17.766C-2917.285,1863.409-2917.336,1865.546-2917.335,1867.68Zm-10.287-.295c0-1.067.069-2.141-.012-3.2a8.005,8.005,0,0,0-8.132-7.5,8.028,8.028,0,0,0-7.76,7.592c-.076,1.063-.043,2.135-.047,3.2-.029,6.512,2.932,10.285,8.046,10.26C-2930.437,1877.708-2927.551,1873.952-2927.622,1867.385Z" transform="translate(-84.217 -80.501)"/>
    <path id="Path_51" data-name="Path 51" fill="#7288a1" d="M-2794.835,1991.315c.044,5.134.385,10.268-2.417,15a18.357,18.357,0,0,1-19.959,8.581,17.982,17.982,0,0,1-13.992-16.88c-.127-4.364-.119-8.737-.012-13.1a18.122,18.122,0,0,1,18.329-17.669,18.158,18.158,0,0,1,18.043,17.667C-2794.784,1987.044-2794.835,1989.181-2794.835,1991.315Zm-9.969-.133-.2-.028c0-.874.031-1.749-.005-2.622a8.118,8.118,0,0,0-7.9-8.1,8.09,8.09,0,0,0-8.141,8.151,46.762,46.762,0,0,0,.052,5.532,8.132,8.132,0,0,0,7.124,7.347,7.842,7.842,0,0,0,8.341-5.428A28.991,28.991,0,0,0-2804.8,1991.182Z" transform="translate(-135.277 -132.032)"/>
  </g>
</svg>
