<svg id="Group_1147" data-name="Group 1147" xmlns="http://www.w3.org/2000/svg" width="50.976" height="51" viewBox="0 0 50.976 51">
  <path id="Path_7253" data-name="Path 7253" d="M808.486,197.929h1.674v1.685h-.565c-3.187,0-6.375,0-9.563-.007a.589.589,0,0,0-.65.381,1.475,1.475,0,0,1-.564.679,19.416,19.416,0,0,1-4.758,2.152,7.232,7.232,0,0,1-1.574.187q-16.1.016-32.194.008c-.823,0-1.106-.287-1.106-1.119q0-10.386,0-20.772a4.308,4.308,0,0,1,2.276-3.975q3.687-2.15,7.371-4.3c.15-.088.3-.182.493-.3-.967-1.874-.784-3.89-.787-5.882q-.007-3.852,0-7.7a6.8,6.8,0,0,1,6.958-6.94c1.045,0,2.09,0,3.134,0a3.484,3.484,0,0,1,2.85,1.382.892.892,0,0,0,.59.3,3.419,3.419,0,0,1,3.463,3.525c0,3.471-.013,6.942.007,10.413a10.4,10.4,0,0,1-.8,4.912L787.21,174c.223-.665.724-.756,1.323-.739a6.715,6.715,0,0,0,2.572-.083c.727-.3,1.189-1.187,1.851-1.712a2.635,2.635,0,0,0,1.093-2.655,8.383,8.383,0,0,1-.01-1.327c.007-.695.312-1.009,1-1.014.815-.006,1.63.025,2.443-.017a1.331,1.331,0,0,0,.769-.326c.64-.585,1.226-1.228,1.857-1.823a1.182,1.182,0,0,1,.673-.367c1.98-.029,3.961-.017,5.975-.017v1.693c-1.43,0-2.846.061-4.253-.021a2.83,2.83,0,0,0-2.258.921,2.923,2.923,0,0,0-1.115,2.76,8,8,0,0,1,.009,1.22c0,.764-.3,1.066-1.049,1.07-.815,0-1.63-.017-2.443.013a1.057,1.057,0,0,0-.642.251c-.82.782-1.613,1.592-2.411,2.4-.1.1-.234.218-.238.331-.022.761-.02,1.523,0,2.284,0,.093.117.206.208.271a4.669,4.669,0,0,1,2.334,3.1c0-1.713,0-3.339,0-4.965,0-.837.28-1.122,1.1-1.122,1.592,0,3.183,0,4.848,0V172.2c0-.726,0-1.452,0-2.178a.877.877,0,0,1,1.009-1q2.762-.006,5.525,0c.828,0,1.111.284,1.111,1.114q0,11.475,0,22.949Zm-19.548-10.212v-.569q0-2.576,0-5.152c0-.788.295-1.077,1.093-1.078q1.562,0,3.123,0a2.522,2.522,0,0,0-2.4-2.554c-.638,0-1.276-.021-1.912.012a1.075,1.075,0,0,0-.642.253q-1.23,1.172-2.4,2.4a1.054,1.054,0,0,0-.248.643c-.028.849,0,1.7-.014,2.549a.844.844,0,0,1-.911.936q-1.647.017-3.293,0a.839.839,0,0,1-.887-.907c-.009-.256,0-.512,0-.807h-5.063v-1.689h5.062c0-.229,0-.418,0-.608,0-.791.293-1.078,1.091-1.08.814,0,1.629.009,2.443-.008a.823.823,0,0,0,.516-.172c.878-.849,1.74-1.714,2.6-2.585.243-.247.233-1.259-.015-1.408-1.044-.626-2.1-1.234-3.162-1.856a8.55,8.55,0,0,1-13.725.029,1.549,1.549,0,0,0-.223.085c-2.595,1.514-5.193,3.022-7.78,4.548a2.544,2.544,0,0,0-1.3,2.34c0,3.966,0,7.932.009,11.9a7.547,7.547,0,0,0,.169,1.525,8.491,8.491,0,0,0,8.463,6.855q6,0,12,0h.588v-4.351a1.574,1.574,0,0,0-.258-.1q-5.216-.917-10.434-1.83a4.234,4.234,0,0,1-3.57-3.067,2.163,2.163,0,0,1-.133-.62c-.011-1.764-.006-3.528-.006-5.3h1.669c0,1.54,0,3.044,0,4.547a2.573,2.573,0,0,0,2.316,2.754q.679.117,1.357.239,4.641.827,9.282,1.653c.578.1.648.038.649-.542q0-2.6,0-5.206c0-1.748.033-1.782,1.771-1.782Zm-18.7-22.413h.008c0,1.345-.033,2.691.006,4.035a6.8,6.8,0,0,0,13.589-.379q.015-2.973,0-5.946a5.816,5.816,0,0,0-.126-2.185c-.277-.634-.987-1.085-1.521-1.6a1.175,1.175,0,0,0-1.821.015c-.42.405-.821.831-1.242,1.235a2.9,2.9,0,0,1-4.183,0c-.421-.4-.822-.83-1.243-1.235a1.177,1.177,0,0,0-1.821-.006c-.446.429-.9.854-1.305,1.321a1.335,1.335,0,0,0-.325.769C770.216,162.649,770.233,163.977,770.233,165.3Zm36.519,32.589V170.755h-4.188v27.138Zm-5.934-22.043h-4.206V197.3a2.909,2.909,0,0,0,.5-.038,1.957,1.957,0,0,1,1.952.517.533.533,0,0,0,.322.136c.472.015.944.006,1.435.006Zm-5.939,6.795h-4.2a.568.568,0,0,0-.041.129q-.005,4.488,0,8.976a.743.743,0,0,0,.161.422,2.376,2.376,0,0,1,.418,2.057c-.157.776-.309,1.553-.467,2.35a6.1,6.1,0,0,0,4.126.985ZM783.834,201.3c.138.01.222.021.307.021q4.117,0,8.235,0a6.522,6.522,0,0,0,.845-.062c1.658-.219,3-1.2,4.471-1.872.09-.041.117-.222.173-.338-.137-.044-.282-.142-.41-.124-.8.111-1.6.271-2.408.373a8.958,8.958,0,0,1-5.637-1.478.878.878,0,0,1-.438-1.039c.2-.95.413-1.9.571-2.855a.9.9,0,0,0-.2-.739.825.825,0,0,0-.742.084c-1.514,1.045-3.008,2.119-4.5,3.2a.682.682,0,0,0-.259.465C783.826,198.364,783.834,199.8,783.834,201.3Zm-13.555-42.924c.147-.131.263-.228.373-.333a2.905,2.905,0,0,1,4.3.03c.379.371.747.753,1.127,1.124a1.21,1.21,0,0,0,1.937-.011,7.064,7.064,0,0,1,1.544-1.435,1.554,1.554,0,0,0,.885-1.859c-.014-.122,0-.247,0-.371a1.712,1.712,0,0,0-1.795-1.8c-1.114-.01-2.229-.012-3.342,0A5.084,5.084,0,0,0,770.279,158.371Zm14.438,31.065v4.444c1.469-.8,2.566-2.122,4.193-2.6v-1.848Zm-23.834,11.834h2.707l-.248.2-2.607-2.644.166-.2c-.005.064-.016.128-.016.192C760.882,199.625,760.883,200.435,760.883,201.271Zm21.251-45.838c0,.532-.007,1.026.005,1.519a.445.445,0,0,0,.119.319c.51.352,1.035.681,1.544,1.01C784,156.435,783.508,155.543,782.134,155.433Zm15.273,14.406V168.2h-1.632v1.641Zm-8.445,5.147v1.648H790.6v-1.648Zm-5.147,6.817H782.16v1.634h1.656Z" transform="translate(-759.185 -152.014)" fill="#7288a1" fill-rule="evenodd"/>
  <path id="Path_7254" data-name="Path 7254" d="M1127.31,618v-1.612h2.5V618Z" transform="translate(-1088.194 -567.049)" fill="#7288a1" fill-rule="evenodd"/>
  <path id="Path_7255" data-name="Path 7255" d="M1178.039,617.969h-2.479v-1.64h2.479Z" transform="translate(-1131.317 -566.992)" fill="#7288a1" fill-rule="evenodd"/>
  <path id="Path_7256" data-name="Path 7256" d="M1223.388,265.94v-1.624h1.649v1.624Z" transform="translate(-1174.063 -252.383)" fill="#7288a1" fill-rule="evenodd"/>
  <path id="Path_7257" data-name="Path 7257" d="M879.426,433.909v-1.632h1.63v1.632Z" transform="translate(-866.65 -402.497)" fill="#7288a1" fill-rule="evenodd"/>
  <path id="Path_7258" data-name="Path 7258" d="M911.335,308.45c0-.51,0-1.021,0-1.607.27,0,.528.009.784,0a.849.849,0,0,0,.9-.9c.015-.527,0-1.055,0-1.614h1.744a14.744,14.744,0,0,1-.181,2.374A2.569,2.569,0,0,1,911.335,308.45Z" transform="translate(-895.167 -288.142)" fill="#7288a1" fill-rule="evenodd"/>
  <path id="Path_7259" data-name="Path 7259" d="M882.936,256.373V258h-3.329v-1.63Z" transform="translate(-866.811 -245.284)" fill="#7288a1" fill-rule="evenodd"/>
  <path id="Path_7260" data-name="Path 7260" d="M943.617,256.116h3.31v1.65h-3.31Z" transform="translate(-924.02 -245.054)" fill="#7288a1" fill-rule="evenodd"/>
  <path id="Path_7261" data-name="Path 7261" d="M888.9,280.9a.847.847,0,1,1-.809-.871A.856.856,0,0,1,888.9,280.9Z" transform="translate(-873.607 -266.422)" fill="#7288a1" fill-rule="evenodd"/>
  <path id="Path_7262" data-name="Path 7262" d="M952.9,280.88a.847.847,0,1,1-.83-.851A.855.855,0,0,1,952.9,280.88Z" transform="translate(-930.801 -266.427)" fill="#7288a1" fill-rule="evenodd"/>
</svg>
