<svg xmlns="http://www.w3.org/2000/svg" width="52.772" height="54.265" viewBox="0 0 52.772 54.265">
  <g id="Group_1479" data-name="Group 1479" transform="translate(0 0)">
    <path id="Path_7563" data-name="Path 7563" d="M2557.748-847.344c.125.851.68.742,1.192.74,1.472,0,2.944.012,4.416-.012.455-.007.592.135.59.594q-.026,4.565,0,9.13c0,.471-.131.634-.613.626-1.587-.026-3.176,0-4.763-.017a.644.644,0,0,0-.734.544,20.246,20.246,0,0,1-2.667,5.835c-.233.334-.079.525.156.756,1.2,1.182,2.39,2.375,3.572,3.553l-5.5,5.462c-.65-.645-1.363-1.348-2.072-2.055-.527-.525-1.054-1.05-1.569-1.587a.438.438,0,0,0-.652-.058,20.727,20.727,0,0,1-5.883,2.682.593.593,0,0,0-.5.664c.01,1.588.007,3.176,0,4.764,0,.657-.005.66-.659.66-3.027,0-6.054-.014-9.081.007-.5,0-.606-.176-.6-.633.023-1.587,0-3.176.013-4.763a.643.643,0,0,0-.5-.719q-2.131-.793-4.226-1.683a9.277,9.277,0,0,1-1.539-.9.577.577,0,0,0-.885.087c-1.116,1.152-2.262,2.274-3.4,3.406-.057.057-.121.107-.18.16l-5.488-5.494c.867-.85,1.75-1.714,2.631-2.58.365-.359.721-.728,1.092-1.082a.413.413,0,0,0,.061-.61,20.357,20.357,0,0,1-2.7-5.928.585.585,0,0,0-.67-.491c-1.621.012-3.242-.008-4.863.013-.431.006-.566-.118-.564-.56q.027-4.615,0-9.23c0-.454.159-.557.577-.552,1.6.018,3.209-.006,4.813.013a.634.634,0,0,0,.724-.549,20.309,20.309,0,0,1,2.663-5.836c.211-.305.1-.5-.125-.721-1.212-1.192-2.413-2.4-3.611-3.588l5.557-5.518c.609.641,1.262,1.336,1.925,2.022.54.558,1.1,1.1,1.636,1.659a.459.459,0,0,0,.688.077,20.51,20.51,0,0,1,5.885-2.674.584.584,0,0,0,.492-.666c-.012-1.621.008-3.242-.012-4.863-.005-.431.12-.569.562-.566q4.615.027,9.229,0c.457,0,.554.159.549.575-.019,1.6,0,3.209-.013,4.813a.626.626,0,0,0,.5.722c.593.178,1.167.417,1.824.658-.738,1.023-1.41,1.958-2.086,2.89-.252.348-.531.678-.767,1.036a.534.534,0,0,1-.676.242,15.175,15.175,0,0,0-5.937-.383,15.1,15.1,0,0,0-6.938,2.589,15.865,15.865,0,0,0-5.9,7.29,15.667,15.667,0,0,0-1.081,7.332,15.512,15.512,0,0,0,3.8,9.022,15.875,15.875,0,0,0,6.736,4.65,16.051,16.051,0,0,0,7.225.8,15.31,15.31,0,0,0,5.109-1.485,15.672,15.672,0,0,0,6.263-5.415,15.213,15.213,0,0,0,2.524-6.344c.115-.764.109-1.546.2-2.316a1.889,1.889,0,0,1,.273-.86c1.179-1.656,2.386-3.291,3.587-4.931C2557.443-847.045,2557.544-847.13,2557.748-847.344Z" transform="translate(-2511.177 869.321)" fill="#fff"/>
    <path id="Path_7564" data-name="Path 7564" d="M2713.607-882.9l4.118,2.988-1.548,2.129q-2.39,3.288-4.781,6.576-2.671,3.667-5.347,7.33-3.572,4.913-7.134,9.833c-1.185,1.632-2.383,3.254-3.559,4.893-.259.36-.468.241-.733.041q-2.615-1.97-5.236-3.931-3.213-2.409-6.426-4.818c-.143-.107-.276-.226-.448-.367.685-.916,1.345-1.8,2.007-2.684a8.338,8.338,0,0,0,.707-.955c.235-.432.469-.35.779-.115,1.133.859,2.273,1.708,3.408,2.564q2.079,1.566,4.152,3.139c.294.224.489.223.727-.106q3.72-5.143,7.465-10.268,4.117-5.651,8.237-11.3c1.06-1.457,2.11-2.921,3.167-4.38C2713.3-882.513,2713.442-882.688,2713.607-882.9Z" transform="translate(-2665.506 882.898)" fill="#fff"/>
  </g>
</svg>
