<svg xmlns="http://www.w3.org/2000/svg" width="52.762" height="51" viewBox="0 0 52.762 51">
  <g id="Group_1267" data-name="Group 1267" transform="translate(0 0)">
    <path id="Path_7480" data-name="Path 7480" d="M1721.477,1089.859c-.84,0-1.642,0-2.445,0-.728,0-1.051-.32-1.053-1.04q-.005-2.022,0-4.045c0-.752.317-1.068,1.069-1.069q5.143,0,10.287,0h.953v-.524q0-6.133,0-12.266c0-1.044.238-1.278,1.3-1.278h3.1c0-.551,0-1.072,0-1.594,0-.722.324-1.043,1.05-1.043q7.737,0,15.475,0c.746,0,1.056.319,1.059,1.078,0,.5,0,.993,0,1.559h.974c.777,0,1.553,0,2.33,0s1.092.307,1.092,1.09q0,7.254-.009,14.507a.67.67,0,0,0,.478.742c3.708,1.569,7.4,3.167,11.108,4.742a1.1,1.1,0,0,1,.741,1.153q-.016,9.386-.008,18.772v.615c.3,0,.546-.008.79,0a.887.887,0,0,1,.968.994q.006,2.352,0,4.7c0,.721-.323,1.038-1.055,1.038q-7.913,0-15.826,0h-34.687c-.9,0-1.188-.277-1.189-1.171q0-2.22,0-4.44c0-.833.3-1.126,1.146-1.128.63,0,1.261-.021,1.89.008.391.018.491-.114.49-.5-.013-4.206-.008-8.411-.008-12.617q0-3.957,0-7.913C1721.494,1090.135,1721.485,1090.033,1721.477,1089.859Zm10.571-18.449v.434q0,19.472-.009,38.945c0,.363.1.478.467.475,2.007-.015,4.015-.018,6.022,0,.437,0,.566-.107.564-.561-.019-3.941-.011-7.883-.01-11.824,0-.808.3-1.109,1.117-1.109q3.253,0,6.505,0c.894,0,1.169.281,1.169,1.189,0,3.912.008,7.824-.008,11.736,0,.431.087.579.55.573,2.007-.027,4.014-.021,6.022-.007.351,0,.478-.075.478-.458q-.014-19.495-.008-38.989c0-.127-.016-.255-.024-.385h-2.612c0,.213,0,.388,0,.563,0,.87-.288,1.157-1.157,1.158h-4.835q-5.253,0-10.505,0c-.782,0-1.084-.307-1.088-1.094,0-.212,0-.425,0-.648ZM1756.7,1087.7c-.013.166-.029.278-.029.39q0,11.361-.006,22.722c0,.343.092.454.442.453q4.835-.017,9.669,0c.332,0,.454-.081.454-.441q-.016-9.12,0-18.24a.5.5,0,0,0-.366-.545c-2.95-1.253-5.894-2.523-8.84-3.786C1757.592,1088.07,1757.162,1087.895,1756.7,1087.7Zm-36.945,28.5h49.225v-3.141h-49.225Zm3.524-26.327c-.009.155-.021.269-.021.383q0,10.28-.008,20.559c0,.35.108.45.448.448,2.006-.012,4.012,0,6.018-.005.573,0,.575,0,.575-.572q0-10.192,0-20.383c0-.14-.012-.279-.018-.429Zm17.591,9.685a1.962,1.962,0,0,0-.025.206q0,5.555-.008,11.109c0,.325.13.39.416.389,1.478-.009,2.957-.014,4.435,0,.355,0,.438-.114.437-.453-.011-3.6-.006-7.2-.007-10.8,0-.143-.014-.285-.022-.452Zm-4.41-28.2h14.023v-2.565h-14.023Zm-6.182,14.14h-10.509v2.567h10.509Z" transform="translate(-1717.976 -1066.997)" fill="#7288a1"/>
    <path id="Path_7481" data-name="Path 7481" d="M1940.1,1169.05h-1.685v-1.715h1.685Z" transform="translate(-1919.036 -1158.512)" fill="#7288a1"/>
    <path id="Path_7482" data-name="Path 7482" d="M2000.091,1167.3v1.706h-1.7V1167.3Z" transform="translate(-1973.732 -1158.481)" fill="#7288a1"/>
    <path id="Path_7483" data-name="Path 7483" d="M2060.092,1167.3V1169h-1.7V1167.3Z" transform="translate(-2028.457 -1158.479)" fill="#7288a1"/>
    <path id="Path_7484" data-name="Path 7484" d="M1940.141,1217.358v1.7h-1.7v-1.7Z" transform="translate(-1919.06 -1204.137)" fill="#7288a1"/>
    <path id="Path_7485" data-name="Path 7485" d="M2000.042,1217.414v1.686h-1.717v-1.686Z" transform="translate(-1973.674 -1204.188)" fill="#7288a1"/>
    <path id="Path_7486" data-name="Path 7486" d="M2058.418,1217.151h1.685v1.716h-1.685Z" transform="translate(-2028.484 -1203.948)" fill="#7288a1"/>
    <path id="Path_7487" data-name="Path 7487" d="M1938.26,1269.048v-1.7h1.7v1.7Z" transform="translate(-1918.891 -1249.734)" fill="#7288a1"/>
    <path id="Path_7488" data-name="Path 7488" d="M1998.425,1267.161h1.684v1.714h-1.684Z" transform="translate(-1973.766 -1249.561)" fill="#7288a1"/>
    <path id="Path_7489" data-name="Path 7489" d="M2060.086,1269.025H2058.4v-1.719h1.689Z" transform="translate(-2028.464 -1249.693)" fill="#7288a1"/>
    <path id="Path_7490" data-name="Path 7490" d="M1940.1,1319.05h-1.685v-1.715h1.685Z" transform="translate(-1919.036 -1295.323)" fill="#7288a1"/>
    <path id="Path_7491" data-name="Path 7491" d="M2000.075,1317.284v1.708h-1.7v-1.708Z" transform="translate(-1973.717 -1295.277)" fill="#7288a1"/>
    <path id="Path_7492" data-name="Path 7492" d="M1940.065,1369.006h-1.693v-1.718h1.693Z" transform="translate(-1918.993 -1340.884)" fill="#7288a1"/>
    <path id="Path_7493" data-name="Path 7493" d="M2000.026,1367.4v1.689h-1.719V1367.4Z" transform="translate(-1973.658 -1340.983)" fill="#7288a1"/>
    <path id="Path_7494" data-name="Path 7494" d="M2058.235,1369.007V1367.3h1.7v1.705Z" transform="translate(-2028.317 -1340.897)" fill="#7288a1"/>
    <path id="Path_7495" data-name="Path 7495" d="M2060.076,1317.282v1.709h-1.7v-1.709Z" transform="translate(-2028.443 -1295.275)" fill="#7288a1"/>
    <path id="Path_7496" data-name="Path 7496" d="M2188.372,1367.177h1.693v1.718h-1.693Z" transform="translate(-2147.011 -1340.783)" fill="#7288a1"/>
    <path id="Path_7497" data-name="Path 7497" d="M2230.077,1367.288V1369h-1.7v-1.708Z" transform="translate(-2183.496 -1340.884)" fill="#7288a1"/>
    <path id="Path_7498" data-name="Path 7498" d="M2190.116,1407.329v1.7h-1.7v-1.7Z" transform="translate(-2147.05 -1377.404)" fill="#7288a1"/>
    <path id="Path_7499" data-name="Path 7499" d="M2230.029,1409.117h-1.7v-1.7h1.7Z" transform="translate(-2183.454 -1377.484)" fill="#7288a1"/>
    <path id="Path_7500" data-name="Path 7500" d="M2190.042,1449.13h-1.7v-1.7h1.7Z" transform="translate(-2146.985 -1413.981)" fill="#7288a1"/>
    <path id="Path_7501" data-name="Path 7501" d="M2230.014,1449.1h-1.7v-1.7h1.7Z" transform="translate(-2183.438 -1413.948)" fill="#7288a1"/>
    <path id="Path_7502" data-name="Path 7502" d="M2190.043,1487.412v1.686h-1.717v-1.686Z" transform="translate(-2146.969 -1450.446)" fill="#7288a1"/>
    <path id="Path_7503" data-name="Path 7503" d="M2228.4,1487.141h1.689v1.719H2228.4Z" transform="translate(-2183.516 -1450.199)" fill="#7288a1"/>
    <path id="Path_7504" data-name="Path 7504" d="M1810.052,1368.993h-1.687v-1.719h1.688Z" transform="translate(-1800.416 -1340.871)" fill="#7288a1"/>
    <path id="Path_7505" data-name="Path 7505" d="M1808.176,1409.051v-1.688h1.719v1.688Z" transform="translate(-1800.245 -1377.435)" fill="#7288a1"/>
    <path id="Path_7506" data-name="Path 7506" d="M1810.045,1449.135h-1.7v-1.7h1.7Z" transform="translate(-1800.401 -1413.987)" fill="#7288a1"/>
    <path id="Path_7507" data-name="Path 7507" d="M1808.269,1488.985v-1.71h1.7v1.71Z" transform="translate(-1800.33 -1450.32)" fill="#7288a1"/>
  </g>
</svg>
