<?xml version="1.0" encoding="utf-8"?>
<!-- Generator: Adobe Illustrator 21.0.2, SVG Export Plug-In . SVG Version: 6.00 Build 0)  -->
<svg version="1.1" id="Layer_1" xmlns="http://www.w3.org/2000/svg" xmlns:xlink="http://www.w3.org/1999/xlink" x="0px" y="0px"
	 viewBox="0 0 432 99" style="enable-background:new 0 0 432 99;" xml:space="preserve">
<style type="text/css">
	.st0{fill:#2C3838;}
	.st1{fill:#5D6B6B;}
	.st2{fill:url(#SVGID_1_);}
</style>
<title>sample bank</title>
<g>
	<path class="st0" d="M101.7,61.4v2.7c0,4.5,1.5,7.5,5.5,7.5c3.6,0,5.2-2.2,5.2-6.8c0-4.6-1.4-7.2-8.3-11.7
		c-8-5.1-11.7-9.3-11.7-17.6c0-9.3,4.8-15.5,14.8-15.5c10.7,0,14.7,6.2,14.7,16.1v2.5h-9.9v-3.4c0-4.5-1.4-6.6-4.7-6.6
		c-3.4,0-4.7,2.4-4.7,6c0,3.6,1.2,5.5,6.8,9.1c9.6,6.1,13.3,10.2,13.3,19.9c0,10.9-5.2,16.6-15.8,16.6c-12.5,0-15.5-8-15.5-16.3
		v-2.6L101.7,61.4z"/>
	<path class="st0" d="M157.1,68.1c0,3.7,0,9.1,0.2,11.2H148c-0.2-1.5-0.5-3-0.6-4.5c-2,3.9-5.3,5.3-9.7,5.3
		c-8.7,0-12.1-7.8-12.1-16.8v-1c0-13.9,9.1-18,19.5-18h1.9v-8.2c0-4.8-0.6-7.7-4.7-7.7c-4.1,0-4.8,3-4.8,7.1v1.1h-9.9v-1
		c0-8.3,3.2-15.5,15.3-15.5c10.8,0,14.4,6.2,14.4,15.4v32.5H157.1z M147.1,52.1h-2.4c-5.8,0-9.6,2.4-9.6,10.2v0.9
		c0,4.7,1.6,8.1,5.6,8.1c4.6,0,6.3-3.4,6.3-11.6L147.1,52.1z"/>
	<path class="st0" d="M165.2,37.8c0-11.3,0-14.2-0.1-16.9h9.7c0.2,1.7,0.4,3.5,0.5,5.2c1.7-4,5.8-6.3,10.2-6.1c4.7,0,7.8,2,9.2,6.5
		c2.1-4.1,6.3-6.7,11.1-6.5c6.1,0,11.4,3,11.4,14.3v45.1h-10.2V36.2c0-4.3-1-7.1-4.7-7.1c-4.7,0-5.8,3.9-5.8,9.9v40.3h-10.2V36.5
		c0-5.8-1.6-7.5-4.8-7.5c-4.7,0-5.7,4-5.7,10.1v40.1h-10.2L165.2,37.8z"/>
	<path class="st0" d="M224.8,37.6c0-8,0-13.2-0.1-16.8h9.7c0.4,2,0.5,4,0.5,6c1.6-4.3,6-7.1,10.6-6.8c8.2,0,12.1,5.6,12.1,17v24.3
		c0,13.2-4.7,18.9-13,18.9c-5.3,0-8.1-2.6-9.4-5.3V99h-10.2L224.8,37.6z M235,59.5c0,6.3,1,11.6,6.2,11.6c4.6,0,6-3.5,6-9.6V37.6
		c0-6-2.1-8.6-5.6-8.6c-4.7,0-6.7,3.5-6.7,10.6L235,59.5z"/>
	<path class="st0" d="M263.8,79.3V0H274v79.3H263.8z"/>
	<path class="st0" d="M290.1,52.5v8.9c0,5.1,1,9.9,6,9.9s5.8-4.3,5.8-9.1V62h9.9v0.4c0,6.3-1.4,17.8-15.4,17.8
		c-13.8,0-16.3-8.7-16.3-20.6V39.4c0-8.3,2.9-19.5,16.3-19.5c11.9,0,15.7,8.4,15.7,19.5v13.2H290.1z M302.3,44.5v-6.6
		c0-5.3-1-9.3-6-9.3c-4.6,0-6.1,3.5-6.1,9.4v6.5H302.3z"/>
	<path class="st1" d="M329.3,29.8h9.4c8.2,0,11.3,4,11.3,11.1v2c0,7-2.2,9.1-4.6,9.9c2.5,0.9,5.6,2.9,5.6,9.9v3.7
		c0,8.4-3.2,12.8-11.8,12.8h-9.9V29.8z M338.1,50.3c4.3,0,5.6-1.5,5.6-6.7v-2.1c0-4.2-1.5-6.1-5.3-6.1h-2.6v14.9H338.1z M335.6,73.8
		h2.9c4.7,0,6-2.2,6-7.5V63c0-5-1.6-7.2-6.3-7.2h-2.5L335.6,73.8z"/>
	<path class="st1" d="M375.5,72.1c0,2.5,0,6,0.1,7.2h-6.1c-0.2-1-0.4-1.9-0.5-2.9c-1.2,2.5-3.5,3.5-6.3,3.5c-5.6,0-7.8-5.1-7.8-10.9
		v-0.6c0-9.1,6-11.8,12.7-11.8h1.2v-5.3c0-3.2-0.5-5-3-5c-2.5,0-3.2,1.9-3.2,4.6v0.7H356v-0.6c0-5.3,2.1-10.2,9.9-10.2
		c7.1,0,9.4,4.1,9.4,9.9L375.5,72.1z M369,61.6h-1.5c-3.7,0-6.2,1.6-6.2,6.6v0.6c0,3,1,5.2,3.6,5.2c3,0,4.1-2.1,4.1-7.6L369,61.6
		L369,61.6z"/>
	<path class="st1" d="M382.2,52.9c0-7.7,0-9.9-0.1-11.7h6.3c0.2,1.2,0.2,2.4,0.2,3.6c1.1-2.7,4-4.5,7-4.2c4.5,0,7.7,2.6,7.7,9.7
		v28.9h-6.7V51.7c0-3.6-1.2-5-3.6-5c-2.9,0-4.3,1.5-4.3,7.5v25.1h-6.6V52.9H382.2z"/>
	<path class="st1" d="M416.6,58.3L416.6,58.3c1.9-4.2,5.5-12.2,7.6-16.9h7c-2.5,5.2-4.8,9.6-7.1,14l8,24h-7.3l-5.2-17.6
		c-0.7,1.4-2.2,4.3-2.9,5.6v12.1H410V27.7h6.6V58.3z"/>
	
		<linearGradient id="SVGID_1_" gradientUnits="userSpaceOnUse" x1="112.23" y1="-54.3076" x2="187.927" y2="-54.3076" gradientTransform="matrix(1 0 0 1 -112.23 96.12)">
		<stop  offset="0" style="stop-color:#18D4F1"/>
		<stop  offset="1" style="stop-color:#023EFE"/>
	</linearGradient>
	<path class="st2" d="M36.8,78.5H7.6c-1.4,0-2.6,0-4-0.1c-1.9,0.1-3.5-1.4-3.5-3.2c0-0.1,0-0.1,0-0.2c-0.1-1.2-0.2-2.5-0.1-3.7
		c0-16,0-31.9,0-48c0-5.5,3.4-9.2,9.1-10.2c12.5-2.1,25.2-4,37.8-6C51,6.5,55,5.7,58.9,5.2c5.5-0.7,8,2.5,7.3,7.8
		c0,0.2-0.6,0.7-1,0.7c-9.4,1-18.9,2-28.3,3c-8.4,0.9-16.8,1.7-25.2,2.6c-1,0.1-2.4,0.1-2.4,1.2c0,1.1,1.5,1.2,2.5,1.2
		c18.3,0,36.4,0,54.7,0h2.6c4.2,0,6.7,2.5,6.7,6.8c0,7.2,0,14.4,0,21.5s0,14,0,21.1c0,4.8-2.4,7.2-7.2,7.2L36.8,78.5L36.8,78.5z
		 M69.1,49.1c0.1-3-2.1-5.6-5.1-5.7c-0.1,0-0.1,0-0.2,0c-3.1-0.1-5.6,2.4-5.7,5.3l0,0c-0.1,3,2.2,5.5,5.2,5.6c3,0.2,5.5-2,5.7-4.8
		C69.1,49.3,69.1,49.2,69.1,49.1z"/>
</g>
</svg>
