<svg xmlns="http://www.w3.org/2000/svg" width="29" height="29" viewBox="0 0 29 29">
  <g id="Group_725" data-name="Group 725" transform="translate(-285.115 -30.665)">
    <circle id="Ellipse_308" data-name="Ellipse 308" cx="12.658" cy="12.658" r="12.658" transform="translate(285.115 34.666) rotate(-9.094)" fill="#ffce00"/>
    <g id="Group_721" data-name="Group 721" transform="translate(291.975 41.691)">
      <g id="Group_718" data-name="Group 718" transform="translate(11.937)">
        <g id="Group_717" data-name="Group 717">
          <path id="Path_105" data-name="Path 105" d="M352.417,70.2a.2.2,0,0,0,.3-.165v0a1.672,1.672,0,1,0-3.344,0v0a.2.2,0,0,0,.3.165,2.6,2.6,0,0,1,2.735,0Z" transform="translate(-349.378 -68.363)" fill="#562912"/>
        </g>
      </g>
      <g id="Group_720" data-name="Group 720" transform="translate(0)">
        <g id="Group_719" data-name="Group 719">
          <path id="Path_106" data-name="Path 106" d="M311.608,70.2a.2.2,0,0,0,.3-.165v0a1.672,1.672,0,0,0-3.345,0v0a.2.2,0,0,0,.3.165,2.607,2.607,0,0,1,2.736,0Z" transform="translate(-308.567 -68.363)" fill="#562912"/>
        </g>
      </g>
    </g>
    <g id="Group_724" data-name="Group 724" transform="translate(293.735 47.611)">
      <g id="Group_723" data-name="Group 723" transform="translate(0 0)">
        <g id="Group_722" data-name="Group 722">
          <path id="Path_107" data-name="Path 107" d="M320.535,91.922a8.531,8.531,0,0,1-5.751-2.247.619.619,0,0,1,.843-.907,7.247,7.247,0,0,0,9.69.115.619.619,0,1,1,.82.928A8.444,8.444,0,0,1,320.535,91.922Z" transform="translate(-314.586 -88.603)" fill="#562912"/>
        </g>
      </g>
    </g>
  </g>
</svg>
