<svg xmlns="http://www.w3.org/2000/svg" width="77.192" height="80.027" viewBox="0 0 77.192 80.027">
  <g id="Group_1429" data-name="Group 1429" transform="translate(-824.941 -210)">
    <g id="Group_1428" data-name="Group 1428" transform="translate(1817.628 99.642)">
      <path id="Path_7553" data-name="Path 7553" d="M-956.912,142.178c-.015.284-.034.484-.034.684,0,4.11.008,8.22-.012,12.329,0,.519.1.719.671.749,7.009.378,13.316,2.851,19.224,6.5.227.14.437.309.714.506.679-.719,1.33-1.445,2.02-2.132a2.131,2.131,0,0,1,3.563.648,2.164,2.164,0,0,1-.555,2.462c-1.726,1.813-3.449,3.628-5.139,5.475a2.259,2.259,0,0,0-.564,1.19,1.108,1.108,0,0,0,.816,1.136,1.229,1.229,0,0,0,1.419-.366c1.123-1.177,2.233-2.367,3.348-3.552.729-.775,1.47-1.539,2.181-2.33a4.548,4.548,0,0,0,1.178-3.929,5.183,5.183,0,0,1-.073-.809q-.006-7.448,0-14.9a2.223,2.223,0,0,1,2.3-2.337,2.225,2.225,0,0,1,2.09,1.751,5.708,5.708,0,0,1,.078,1.058c0,6.843-.006,13.686.012,20.528a4.548,4.548,0,0,1-1.447,3.459c-2.68,2.6-5.315,5.246-7.993,7.848a4.232,4.232,0,0,0-1.5,3.114c0,.4-.2.482-.55.481q-5.727-.009-11.453,0c-.4,0-.549-.136-.546-.545.017-1.773,0-3.547.016-5.32a3.871,3.871,0,0,1,1.135-2.7q3.489-3.677,6.962-7.369c.142-.151.274-.311.5-.564a38.3,38.3,0,0,0-16.694-6.119c-8.26-.808-15.6,1.769-22.559,6.131.82.876,1.569,1.679,2.322,2.479q2.575,2.733,5.156,5.46a3.9,3.9,0,0,1,1.13,2.765c.008,1.731-.012,3.463.015,5.194.008.49-.187.592-.627.59q-5.633-.019-11.266,0c-.477,0-.66-.128-.668-.63a3.88,3.88,0,0,0-1.283-2.76c-2.694-2.645-5.354-5.326-8.077-7.941a4.89,4.89,0,0,1-1.587-3.779c.032-6.843.018-13.686.01-20.528a2.4,2.4,0,0,1,1.123-2.289,2.182,2.182,0,0,1,3.328,1.787c.035,5.132.018,10.264.01,15.4,0,.539-.141,1.082-.109,1.616A4.635,4.635,0,0,0-987,165.581c1.777,1.88,3.541,3.771,5.317,5.652a1.307,1.307,0,0,0,1.978.221,1.332,1.332,0,0,0-.107-2c-1.726-1.841-3.451-3.684-5.193-5.51a2.2,2.2,0,0,1-.592-2.458,2.128,2.128,0,0,1,3.507-.74c.715.695,1.378,1.442,2.067,2.167a46.665,46.665,0,0,1,7.7-4.1,36.911,36.911,0,0,1,12.231-2.893c.522-.03.717-.151.706-.717-.038-1.9-.014-3.8-.016-5.7,0-.183-.018-.367-.032-.622-.744.216-1.432.438-2.132.616-3.144.8-6.211.807-9.02-1.085a13.5,13.5,0,0,1-4.629-5.869,23.733,23.733,0,0,1-.873-2.275,1.161,1.161,0,0,1,1.031-1.626,34.3,34.3,0,0,0,7.713-1.147c2.954-.605,5.551-.065,7.616,2.281a2.036,2.036,0,0,0,.267.2v-6.716c-.335,0-.681,0-1.027,0a27.029,27.029,0,0,1-9.243-1.293,14.913,14.913,0,0,1-9.814-10.385,28.852,28.852,0,0,1-1.135-9.894,1.252,1.252,0,0,1,1.851-1.2,36.4,36.4,0,0,0,9.219,2.19,22.674,22.674,0,0,1,7.245,1.8,10.6,10.6,0,0,1,5.572,6.958,20.6,20.6,0,0,1-.036,10.152,12.07,12.07,0,0,0-.146,1.222l.279.21a1.994,1.994,0,0,1,.22-.5,7.763,7.763,0,0,1,7.586-2.843c2.078.319,4.125.836,6.2,1.183a23.065,23.065,0,0,0,3.114.218c1.155.034,1.654.717,1.283,1.826a18.538,18.538,0,0,1-4.515,7.62,10.387,10.387,0,0,1-7.834,2.993,17.744,17.744,0,0,1-5.319-1.027Zm-3.049-11.243a.888.888,0,0,0,.974-.806,2.315,2.315,0,0,0-.6-2.546,6.342,6.342,0,0,1-.577-.656,27.436,27.436,0,0,0-8.181-6.375,1.3,1.3,0,0,0-1.833.488,1.285,1.285,0,0,0,.635,1.783,25.609,25.609,0,0,1,8.887,7.619A2.782,2.782,0,0,0-959.961,130.935ZM-948.836,135a21.293,21.293,0,0,0-6.421,1.873,2.137,2.137,0,0,0-1.431,1.9c-.022.28-.048.737.1.82.382.218.785.566,1.319.252a17.111,17.111,0,0,1,6.815-2.3,1.257,1.257,0,0,0,1.144-1.392A1.321,1.321,0,0,0-948.836,135Zm-17.837,7.1a1.3,1.3,0,0,0-1.318,1.118,1.276,1.276,0,0,0,1.024,1.422c.365.08.74.114,1.108.18a15.323,15.323,0,0,1,4.736,1.7,1.512,1.512,0,0,0,1.561-.368,3.527,3.527,0,0,0-.718-2.109A17.12,17.12,0,0,0-966.673,142.1Z" fill="#e4e4c2"/>
      <path id="Path_7554" data-name="Path 7554" d="M-925.474,707.152c0-1.246,0-2.43,0-3.614,0-.563.037-1.128-.008-1.687-.048-.6.152-.784.764-.78,4,.026,8,.013,12,.013,1.48,0,2.959,0,4.439,0,.317,0,.573.007.57.445-.015,1.792-.009,3.584-.016,5.376a1.035,1.035,0,0,1-.068.249Z" transform="translate(-58.786 -516.767)" fill="#e4e4c2"/>
      <path id="Path_7555" data-name="Path 7555" d="M-650.4,707.193c0-.9,0-1.748,0-2.6,0-.959.013-1.917,0-2.876-.008-.409.1-.6.558-.6q8.346.018,16.692.005c.308,0,.523.042.52.43-.014,1.813-.012,3.626-.02,5.438a.737.737,0,0,1-.069.2Z" transform="translate(-299.439 -516.81)" fill="#e4e4c2"/>
    </g>
    <path id="Path_7473" data-name="Path 7473" d="M597.138,26A16.134,16.134,0,1,1,581,42.069,16.187,16.187,0,0,1,597.138,26Zm10.73,6.887L587.922,52.834a14.151,14.151,0,0,0,19.946-19.946ZM586.417,51.334l19.922-19.919a14.131,14.131,0,0,0-19.922,19.919Z" transform="translate(288.864 198.864)" fill="#e4e4c2"/>
  </g>
</svg>
