<svg xmlns="http://www.w3.org/2000/svg" xmlns:xlink="http://www.w3.org/1999/xlink" width="71" height="71" viewBox="0 0 71 71"><defs><style>.a{clip-path:url(#a);}.b{fill:#1ab4d7;}.c{fill:#fff;}</style><clipPath id="a"><path d="M0-300H71v71H0Z" transform="translate(0 300.002)"/></clipPath></defs><g transform="translate(-8)"><g transform="translate(8)"><g class="a"><path class="b" d="M70.755-204.465A24.54,24.54,0,0,0,95.3-229.005a24.541,24.541,0,0,0-24.541-24.541,24.541,24.541,0,0,0-24.541,24.541,24.541,24.541,0,0,0,24.541,24.541" transform="translate(-35.277 264.54)"/><path class="c" d="M74.734-167.816l4.188-4.2a.75.75,0,0,0,.216-.528.751.751,0,0,0-.751-.75.744.744,0,0,0-.533.223l-4.184,4.182-4.2-4.189a.75.75,0,0,0-.53-.217.751.751,0,0,0-.75.75.746.746,0,0,0,.225.534l4.187,4.187-4.185,4.193a.748.748,0,0,0-.227.537.751.751,0,0,0,.75.75.744.744,0,0,0,.53-.219l4.2-4.191,4.181,4.176a.748.748,0,0,0,.544.235.751.751,0,0,0,.75-.75.745.745,0,0,0-.218-.529Z" transform="translate(-52.049 203.28)"/><path class="c" d="M201.051-154.556a1.365,1.365,0,0,0,1.364,1.364,1.365,1.365,0,0,0,1.363-1.364,1.365,1.365,0,0,0-1.363-1.364,1.365,1.365,0,0,0-1.364,1.364" transform="translate(-153.47 190.019)"/><path class="c" d="M185.113-167.9a3.953,3.953,0,0,1,3.949-3.949,3.954,3.954,0,0,1,3.948,3.949,3.953,3.953,0,0,1-3.948,3.948,3.953,3.953,0,0,1-3.949-3.948m-1.553,0a5.508,5.508,0,0,0,5.5,5.5,5.509,5.509,0,0,0,5.5-5.5,5.51,5.51,0,0,0-5.5-5.5,5.509,5.509,0,0,0-5.5,5.5" transform="translate(-140.118 203.366)"/><path class="c" d="M170.209-173.01h-.231a3.121,3.121,0,0,0-1.92.649.752.752,0,0,0-.733-.59.742.742,0,0,0-.744.744s0,9.267,0,9.267a.751.751,0,0,0,.75.748.751.751,0,0,0,.75-.749s0-5.7,0-5.7c0-1.9.174-2.666,1.8-2.87a2.582,2.582,0,0,1,.315-.016.738.738,0,0,0,.762-.735.752.752,0,0,0-.753-.75" transform="translate(-127.158 203.065)"/><path class="c" d="M115.777-168.765c0-.021,0-.042,0-.063a3.976,3.976,0,0,1,3.853-3,3.975,3.975,0,0,1,3.867,3.06Zm9.259-.142a5.49,5.49,0,0,0-2.438-3.6,5.546,5.546,0,0,0-6.131.163,5.565,5.565,0,0,0-2.318,4.519,5.417,5.417,0,0,0,.164,1.327,5.546,5.546,0,0,0,4.67,4.11,5.237,5.237,0,0,0,1.98-.131,5.417,5.417,0,0,0,1.645-.7,5.9,5.9,0,0,0,1.408-1.333l.026-.029a.816.816,0,0,0-.085-1.149.752.752,0,0,0-1.108.17c-.079.112-.166.227-.263.343a4.307,4.307,0,0,1-1.085.875,3.95,3.95,0,0,1-1.845.466,4.033,4.033,0,0,1-3.766-2.635,3.947,3.947,0,0,1-.167-.631c-.005-.041-.009-.08-.01-.116h7.832a1.386,1.386,0,0,0,1.492-1.647" transform="translate(-87.134 203.323)"/></g></g></g></svg>