<svg id="iconfinder_Xls_6783458" xmlns="http://www.w3.org/2000/svg" xmlns:xlink="http://www.w3.org/1999/xlink" width="15.892" height="22.233" viewBox="0 0 15.892 22.233">
  <defs>
    <linearGradient id="linear-gradient" x1="0.033" y1="0.166" x2="1.063" y2="0.903" gradientUnits="objectBoundingBox">
      <stop offset="0" stop-color="#00916e"/>
      <stop offset="1" stop-color="#007758"/>
    </linearGradient>
    <linearGradient id="linear-gradient-2" x1="0.007" y1="0.503" x2="1" y2="0.503" xlink:href="#linear-gradient"/>
  </defs>
  <path id="Path_7600" data-name="Path 7600" d="M19.875,2H10.361a.373.373,0,0,0-.277.119L6.119,6.083A.373.373,0,0,0,6,6.361V22.218A1.982,1.982,0,0,0,7.982,24.2H19.875a1.982,1.982,0,0,0,1.982-1.982V3.982A1.982,1.982,0,0,0,19.875,2Z" transform="translate(-5.965 -1.967)" fill="url(#linear-gradient)"/>
  <path id="Path_7601" data-name="Path 7601" d="M10.5,1.991a.373.373,0,0,0-.428.087L6.11,6.043a.373.373,0,0,0-.119.46.4.4,0,0,0,.4.246H8.766a1.982,1.982,0,0,0,1.982-1.982V2.388a.4.4,0,0,0-.246-.4Z" transform="translate(-5.956 -1.958)" fill="url(#linear-gradient-2)"/>
  <path id="Path_7602" data-name="Path 7602" d="M11.9,10.982a.388.388,0,0,0-.5.246L10.6,13.67l-.793-2.442a.4.4,0,1,0-.745.254l1.094,3.465L8.994,18.387a.389.389,0,0,0,.246.5.357.357,0,0,0,.127,0,.388.388,0,0,0,.373-.27l.793-2.442.793,2.442a.389.389,0,0,0,.373.27.357.357,0,0,0,.127,0,.388.388,0,0,0,.246-.5L11,14.946l1.165-3.441a.388.388,0,0,0-.27-.523Z" transform="translate(-6.58 -3.813)" fill="#f8edeb"/>
  <path id="Path_7603" data-name="Path 7603" d="M16.775,18.136H14.793V11.4a.4.4,0,0,0-.793,0v7.136a.4.4,0,0,0,.4.4h2.379a.4.4,0,1,0,0-.793Z" transform="translate(-7.622 -3.831)" fill="#f8edeb"/>
  <path id="Path_7604" data-name="Path 7604" d="M20.982,14.568h-.793a.4.4,0,0,1-.4-.4V12.189a.4.4,0,0,1,.4-.4h1.586a.4.4,0,1,0,0-.793H20.189A1.189,1.189,0,0,0,19,12.189v1.982a1.189,1.189,0,0,0,1.189,1.189h.793a.4.4,0,0,1,.4.4v1.982a.4.4,0,0,1-.4.4H19.4a.4.4,0,1,0,0,.793h1.586a1.189,1.189,0,0,0,1.189-1.189V15.757A1.189,1.189,0,0,0,20.982,14.568Z" transform="translate(-8.658 -3.831)" fill="#f8edeb"/>
</svg>
